<svg width="106" height="106" viewBox="0 0 106 106" fill="none" xmlns="http://www.w3.org/2000/svg">
<rect x="0.5" y="0.5" width="105" height="105" rx="52.5" fill="white" stroke="#CECECE"/>
<path d="M53.0875 69.9191L71.9089 39.1236C71.9496 39.0558 71.9775 38.988 71.9904 38.9202C72.0226 38.7583 71.9733 38.5987 71.8488 38.4456C70.6877 37.0284 62.7836 36.0989 53.0639 36.2258C42.1467 36.3723 33.3477 37.7764 33.0322 39.421L33.0279 39.4451L33.0429 39.4669L52.9759 69.8688L52.9952 69.7551C53.0103 69.7529 53.036 69.7529 53.0596 69.7529C53.0704 69.7529 53.0811 69.7529 53.0875 69.7529V69.9191ZM53.0596 69.6304C53.0274 69.6304 52.9888 69.6326 52.9652 69.6348L33.1545 39.4188C33.5408 37.866 42.4386 36.4882 53.0661 36.346C53.6541 36.3373 54.2357 36.3351 54.8109 36.3351C63.5648 36.3351 70.7049 37.2384 71.7565 38.5221C71.8595 38.6468 71.8981 38.7693 71.8724 38.8961C71.8617 38.9508 71.8402 39.0055 71.8059 39.0601L53.1197 69.6326C53.1047 69.6326 53.0854 69.6304 53.0596 69.6304Z" fill="black"/>
<path d="M52.903 69.7288L53.0081 69.6719L36.0904 37.9426L52.1475 8.6233L52.0445 8.56425L35.953 37.9426L35.9702 37.971L52.903 69.7288Z" fill="black"/>
<path d="M52.9373 69.7135L53.0511 69.6785L43.2498 36.8141L52.1518 8.61237L52.0381 8.57519L43.1253 36.8141L43.1318 36.8316L52.9373 69.7135Z" fill="black"/>
<path d="M53.0382 70L71.9904 38.9224C72.0205 38.7605 71.9733 38.6009 71.8488 38.4478C70.6877 37.0306 62.7836 36.1011 53.0639 36.2279H53.006L52.9888 69.7529H53.0489C53.0596 69.7529 53.0704 69.7529 53.0811 69.7529L53.0382 70ZM71.8745 38.8874L53.1197 69.6348C53.1154 69.6348 53.1111 69.6348 53.1047 69.6326L53.1219 36.346C53.6884 36.3395 54.2529 36.3351 54.8087 36.3351C63.5627 36.3351 70.7028 37.2384 71.7544 38.5221C71.8552 38.6468 71.896 38.7649 71.8745 38.8874Z" fill="black"/>
<path d="M53.1562 69.7113L62.848 36.5669L62.7343 36.5319L53.0403 69.6763L53.1562 69.7113Z" fill="black"/>
<path d="M53.1884 69.7266L69.6276 37.4877L69.6104 37.4571L52.2334 8.2865L52.1282 8.33899L62.7343 36.5713L62.848 36.5276L52.4759 8.92511L69.4902 37.492L53.0811 69.6698L53.1884 69.7266Z" fill="black"/>
<path d="M50.686 41.7983C51.4865 41.7983 52.2999 41.7917 53.124 41.7764C62.848 41.6015 70.7156 40.4205 71.8316 38.9683C71.9518 38.8108 71.9947 38.649 71.9604 38.4893C71.9454 38.4215 71.9153 38.3537 71.8724 38.2881L52.1347 8.10935V8.26463C52.1196 8.26463 52.1025 8.26682 52.0832 8.26682C52.066 8.26682 52.051 8.26682 52.0381 8.26463L52.0145 8.15747L51.9372 8.28213L33 39.187L33.0064 39.211C33.3434 40.7223 40.9213 41.7983 50.686 41.7983ZM52.1712 8.38273L71.7737 38.3537C71.8102 38.4084 71.8338 38.4609 71.8445 38.5156C71.8724 38.6402 71.8381 38.7649 71.7393 38.8917C70.6598 40.2958 62.657 41.4834 53.124 41.654C42.4965 41.842 33.5623 40.7485 33.1288 39.2067L52.0166 8.38492C52.0381 8.3871 52.066 8.38929 52.0982 8.3871C52.1282 8.3871 52.1518 8.38492 52.1712 8.38273Z" fill="black"/>
<path d="M51.9439 8.28763L52.0513 8.34276L36.0833 40.6202L35.9759 40.5651L51.9439 8.28763Z" fill="black"/>
<path d="M53.079 69.7179L53.1906 69.6785L43.297 41.4965L52.1003 8.34118L51.9844 8.31056L43.1725 41.5009L43.179 41.5205L53.079 69.7179Z" fill="black"/>
<path d="M53.0661 41.7764H53.124C62.848 41.6015 70.7156 40.4205 71.8316 38.9683C71.9518 38.8108 71.9947 38.649 71.9604 38.4893L71.9518 38.4696L52.0638 8L52.1239 8.26463C52.1153 8.26463 52.1046 8.26463 52.0939 8.26682H52.0338L52.0359 8.32805L53.0661 41.7764ZM71.8466 38.5265C71.8702 38.6468 71.8359 38.7671 71.7393 38.8939C70.662 40.2936 62.6892 41.4812 53.182 41.654L52.1583 8.38492C52.1626 8.38492 52.1669 8.38273 52.1733 8.38273L71.8466 38.5265Z" fill="black"/>
<path d="M62.7815 41.1684L62.8952 41.1291L52.2033 8.304L52.0917 8.34336L62.7815 41.1684Z" fill="black"/>
<path d="M53.1863 69.7288L69.6426 39.9962L69.6276 39.9656L52.2355 8.28869L52.1304 8.34774L69.5052 39.9962L53.4073 69.0815L62.8952 41.1684L62.7815 41.1291L53.079 69.6785L53.1863 69.7288Z" fill="black"/>
<path d="M36.1867 40.3334L53.1892 69.6597L53.0857 69.722L36.0832 40.3957L36.1867 40.3334Z" fill="black"/>
<path d="M52.566 44.2543C62.5604 44.2543 70.3894 43.139 70.3894 41.7152C70.3894 40.2914 62.5604 39.1761 52.566 39.1761C42.5716 39.1761 34.7426 40.2914 34.7426 41.7152C34.7426 43.139 42.5716 44.2543 52.566 44.2543ZM52.566 39.2482C57.3154 39.2482 61.7793 39.5085 65.1379 39.9809C68.43 40.4445 70.3165 41.0766 70.3165 41.7152C70.3165 42.3538 68.43 42.9859 65.1379 43.4495C61.7814 43.9219 57.3154 44.1822 52.566 44.1822C47.8167 44.1822 43.3507 43.9219 39.9942 43.4495C36.702 42.9859 34.8156 42.3538 34.8156 41.7152C34.8156 41.0766 36.702 40.4445 39.9942 39.9809C43.3507 39.5085 47.8167 39.2482 52.566 39.2482Z" fill="black"/>
<path d="M52.7334 35.1935C61.5217 35.1935 68.4043 34.2115 68.4043 32.9562C68.4043 31.703 61.5217 30.7188 52.7334 30.7188C43.9451 30.7188 37.0626 31.7008 37.0626 32.9562C37.0626 34.2115 43.9451 35.1935 52.7334 35.1935ZM52.7334 30.7932C56.9076 30.7932 60.8328 31.0228 63.7837 31.4384C66.6745 31.8451 68.3313 32.3985 68.3313 32.9583C68.3313 33.5182 66.6724 34.0715 63.7837 34.4783C60.8328 34.8939 56.9076 35.1213 52.7334 35.1213C48.5593 35.1213 44.634 34.8939 41.6831 34.4783C38.7923 34.0715 37.1355 33.5182 37.1355 32.9583C37.1355 32.4007 38.7923 31.8451 41.6831 31.4384C44.634 31.0206 48.5593 30.7932 52.7334 30.7932Z" fill="black"/>
<path d="M52.566 28.7789C59.2855 28.7789 64.5499 28.0244 64.5499 27.0599C64.5499 26.0976 59.2855 25.3431 52.566 25.3431C45.8466 25.3431 40.5822 26.0976 40.5822 27.0599C40.58 28.0244 45.8444 28.7789 52.566 28.7789ZM52.566 25.4175C59.0237 25.4175 64.4791 26.1698 64.4791 27.0621C64.4791 27.9544 59.0237 28.7068 52.566 28.7068C46.1084 28.7068 40.653 27.9544 40.653 27.0621C40.653 26.1698 46.1084 25.4175 52.566 25.4175Z" fill="black"/>
<path d="M52.5145 23.4032C56.8411 23.4032 61.3179 22.9286 61.3179 22.1326C61.3179 21.3365 56.8411 20.8619 52.5145 20.8619C48.188 20.8619 43.7112 21.3365 43.7112 22.1326C43.7112 22.9286 48.188 23.4032 52.5145 23.4032ZM52.5145 20.9363C57.7381 20.9363 61.247 21.5552 61.247 22.1326C61.247 22.7099 57.7381 23.3289 52.5145 23.3289C47.2909 23.3289 43.782 22.7099 43.782 22.1326C43.7842 21.5552 47.2931 20.9363 52.5145 20.9363Z" fill="black"/>
<path d="M52.2935 18.2506C55.1542 18.2506 58.1137 17.8985 58.1137 17.3124C58.1137 16.724 55.1542 16.3741 52.2935 16.3741C49.4327 16.3741 46.4732 16.7262 46.4732 17.3124C46.4732 17.8985 49.4327 18.2506 52.2935 18.2506ZM52.2935 16.4463C55.7315 16.4463 58.0407 16.8946 58.0407 17.3124C58.0407 17.7301 55.7315 18.1784 52.2935 18.1784C48.8554 18.1784 46.5462 17.7301 46.5462 17.3124C46.5462 16.8946 48.8554 16.4463 52.2935 16.4463Z" fill="black"/>
<path d="M52.7334 49.6957C60.4658 49.6957 66.5243 48.8296 66.5243 47.723C66.5243 46.6163 60.468 45.7503 52.7334 45.7503C44.9989 45.7503 38.9426 46.6163 38.9426 47.723C38.9426 48.8296 44.9989 49.6957 52.7334 49.6957ZM52.7334 45.8246C56.4054 45.8246 59.8585 46.0258 62.4531 46.3911C64.9941 46.7497 66.4513 47.2352 66.4513 47.723C66.4513 48.2107 64.9941 48.6984 62.4531 49.0549C59.8563 49.4201 56.4054 49.6213 52.7334 49.6213C49.0614 49.6213 45.6084 49.4201 43.0116 49.0549C40.4706 48.6962 39.0134 48.2107 39.0134 47.723C39.0134 47.2352 40.4706 46.7475 43.0116 46.3911C45.6084 46.0258 49.0593 45.8246 52.7334 45.8246Z" fill="black"/>
<path d="M52.8107 54.5137C58.7511 54.5137 63.4039 53.8444 63.4039 52.9915C63.4039 52.1386 58.7511 51.4693 52.8107 51.4693C46.8703 51.4693 42.2175 52.1386 42.2175 52.9915C42.2175 53.8444 46.8703 54.5137 52.8107 54.5137ZM52.8107 51.5415C58.515 51.5415 63.333 52.2064 63.333 52.9915C63.333 53.7766 58.515 54.4415 52.8107 54.4415C47.1063 54.4415 42.2905 53.7766 42.2905 52.9915C42.2905 52.2064 47.1085 51.5415 52.8107 51.5415Z" fill="black"/>
<path d="M52.9437 59.3842C56.5041 59.3842 60.189 58.9905 60.189 58.3322C60.189 57.6739 56.5063 57.2803 52.9437 57.2803C49.3834 57.2803 45.6985 57.6739 45.6985 58.3322C45.6985 58.9905 49.3834 59.3842 52.9437 59.3842ZM52.9437 57.3546C57.2338 57.3546 60.116 57.8598 60.116 58.3322C60.116 58.8046 57.2338 59.3098 52.9437 59.3098C48.6537 59.3098 45.7715 58.8046 45.7715 58.3322C45.7715 57.862 48.6537 57.3546 52.9437 57.3546Z" fill="black"/>
<path d="M52.7785 63.218C55.0233 63.218 57.4076 62.9775 57.4076 62.5357C57.4076 62.0917 55.0212 61.8533 52.7785 61.8533C50.5337 61.8533 48.1494 62.0939 48.1494 62.5357C48.1494 62.9775 50.5337 63.218 52.7785 63.218ZM52.7785 61.9255C55.4654 61.9255 57.3368 62.247 57.3368 62.5357C57.3368 62.8244 55.4654 63.1459 52.7785 63.1459C50.0916 63.1459 48.2202 62.8244 48.2202 62.5357C48.2202 62.247 50.0916 61.9255 52.7785 61.9255Z" fill="black"/>
<path d="M47.7852 92H47.2588V77.7344H47.2158L40.9424 91.9893H40.373L34.0996 77.7344H34.0566V92H33.5303V76.499H34.0996L40.6416 91.3232H40.6846L47.1943 76.499H47.7852V92ZM56.5615 92.2148C52.4473 92.2148 49.8047 89.0674 49.8047 84.1367C49.8047 79.3135 52.415 76.2842 56.5615 76.2842C59.6445 76.2842 62.2871 78.5723 62.5557 81.4834H62.0293C61.75 78.8516 59.3652 76.7891 56.5615 76.7891C52.748 76.7891 50.3418 79.6143 50.3418 84.1367C50.3418 88.7881 52.791 91.71 56.5615 91.71C59.4297 91.71 61.7715 89.9268 62.0293 87.2734H62.5557C62.3086 90.1846 59.7949 92.2148 56.5615 92.2148ZM64.4678 76.499H69.248C72.2988 76.499 74.2324 78.2607 74.2324 81.0215C74.2324 83.7822 72.2881 85.5439 69.248 85.5439H65.0049V92H64.4678V76.499ZM65.0049 77.0039V85.0391H69.2158C71.9551 85.0391 73.6953 83.5029 73.6953 81.0215C73.6953 78.5293 71.9658 77.0039 69.2158 77.0039H65.0049Z" fill="black"/>
</svg>
