<svg width="106" height="106" viewBox="0 0 106 106" fill="none" xmlns="http://www.w3.org/2000/svg">
<rect x="0.5" y="0.5" width="105" height="105" rx="52.5" fill="white" stroke="#CECECE"/>
<path d="M57.8598 69.5604L42.1057 53.9674C40.3461 52.2273 38.5904 50.4792 36.8387 48.7285C36.7825 48.6727 36.7812 48.5798 36.8374 48.5226C36.8556 48.5041 36.8791 48.4908 36.9026 48.4841L51.2744 44.5444L65.6553 40.6431C65.7323 40.6219 65.8106 40.6684 65.8315 40.7454C65.8381 40.7706 65.8381 40.7985 65.8315 40.8224C65.1736 43.2293 64.5131 45.6376 63.8448 48.0391L57.8598 69.5604ZM57.8598 69.5604L63.6242 47.9156C64.2599 45.522 64.906 43.1337 65.5535 40.7454L65.7284 40.9247L51.3566 44.8645L36.9744 48.7644L37.0384 48.52C38.7732 50.2587 40.5041 51.9988 42.2323 53.7495L57.8598 69.5604Z" fill="black"/>
<path d="M61.0919 82C61.0775 82 61.0631 81.9987 61.0501 81.9947L32.7138 74.2692C32.6577 74.2533 32.6133 74.2095 32.5989 74.1524L25.0058 45.3161C24.9901 45.259 25.0071 45.1979 25.0475 45.1554L45.792 24.0486C45.8338 24.0061 45.8938 23.9901 45.9499 24.0061L74.2862 31.7328C74.3423 31.7488 74.3867 31.7926 74.4011 31.8497L81.9942 60.6846C82.0099 60.7418 81.9929 60.8029 81.9525 60.8454L61.208 81.9522C61.1767 81.9841 61.1349 82 61.0919 82ZM32.89 73.973L61.0435 81.6493L81.6535 60.6767L74.11 32.0277L45.9565 24.3501L25.3452 45.3228L32.89 73.973Z" fill="black"/>
<path d="M57.8598 69.5604L42.0626 53.9236C40.3148 52.1954 38.5761 50.4633 36.8387 48.7285L37.0802 48.6488L35.0086 61.394L32.8992 74.1324L32.7321 73.9637C34.8141 73.5892 36.8948 73.2159 38.9807 72.8546L57.8598 69.5604ZM57.8598 69.5604L39.0838 73.0884C36.9862 73.4842 34.8833 73.8694 32.7804 74.2533C32.702 74.2679 32.6276 74.2148 32.6133 74.1351C32.6107 74.1178 32.6107 74.1006 32.6133 74.0846L34.6862 61.3395L36.7969 48.601C36.8099 48.5213 36.883 48.4682 36.9614 48.4815C36.9914 48.4868 37.0175 48.5014 37.0384 48.5213C38.7875 50.2747 40.5367 52.032 42.2754 53.7934L57.8598 69.5604Z" fill="black"/>
<path d="M25.1637 45.2736L31.0273 46.8556L33.9982 47.6606C34.9916 47.9276 35.985 48.2039 36.977 48.4841C37.0475 48.5041 37.0906 48.5758 37.0802 48.6488L35.0086 61.394L32.8992 74.1324C32.8861 74.2121 32.813 74.2666 32.7347 74.2533C32.6772 74.244 32.6329 74.2002 32.6185 74.147L30.7336 66.9025L25.1637 45.2736ZM25.1637 45.2736L30.9842 66.8971L32.8952 74.07L32.6146 74.0833L34.6875 61.3382L36.7982 48.5997L36.9013 48.7644C35.9301 48.4855 34.9616 48.2052 33.993 47.913L25.1637 45.2736Z" fill="black"/>
<path d="M74.2431 31.8922L80.0467 53.456C80.6954 55.8629 81.3363 58.2764 81.9746 60.6886C81.9955 60.7657 81.9498 60.8467 81.8741 60.8666C81.818 60.8812 81.7606 60.8613 81.7266 60.8188L73.6388 50.8605L65.5822 40.8769C65.5352 40.8198 65.5404 40.7348 65.59 40.6816C66.3119 39.9351 67.0364 39.1886 67.7647 38.4527L74.2431 31.8922ZM74.2431 31.8922L67.8953 38.6706C67.1995 39.4158 66.4986 40.1516 65.7937 40.8875L65.8015 40.6923L73.8881 50.6506L81.9446 60.6342L81.6966 60.7643C81.0687 58.3707 80.4448 55.9784 79.8274 53.5795L74.2431 31.8922Z" fill="black"/>
<path d="M74.2431 31.8922L52.9309 26.2084C50.5734 25.5814 48.2212 24.9452 45.8703 24.3063L45.9982 24.0539L55.9031 32.3478L65.7832 40.6723L65.59 40.683C66.2975 39.9511 67.005 39.2218 67.723 38.4966L74.2431 31.8922ZM74.2431 31.8922L70.0595 36.3633L67.937 38.6268C67.2295 39.3839 66.5116 40.137 65.7937 40.8875C65.7415 40.942 65.6566 40.9447 65.6005 40.8982L55.6956 32.6042L45.8155 24.2784C45.7541 24.2279 45.7463 24.1349 45.7959 24.0738C45.8324 24.0286 45.8912 24.0114 45.9434 24.026C48.3139 24.6742 50.6857 25.3264 53.051 25.9866L74.2431 31.8922Z" fill="black"/>
<path d="M25.1637 45.2736L34.0557 47.6765C35.0334 47.9395 36.0046 48.2092 36.977 48.4841L36.8047 48.5731L41.2703 36.3367L45.7724 24.1137L46.0087 24.2677L40.8291 29.5079L25.1637 45.2736ZM25.1637 45.2736L40.6137 29.3751L45.805 24.0605C45.8612 24.0034 45.9525 24.0034 46.0087 24.0605C46.0504 24.1017 46.0609 24.1641 46.0413 24.2159L41.5744 36.4523L37.0723 48.6741C37.0462 48.7458 36.9705 48.783 36.9 48.7631C35.9093 48.4788 34.9185 48.1919 33.933 47.8957L25.1637 45.2736Z" fill="black"/>
<path d="M57.8598 69.5604L75.8291 62.8086C77.8145 62.0608 79.7987 61.3236 81.7867 60.589L81.7253 60.8188L73.6375 50.8605L65.5809 40.8769L65.8302 40.8224C65.1776 43.2094 64.5236 45.5937 63.8592 47.9794L57.8598 69.5604ZM57.8598 69.5604L63.6085 47.9754C64.2495 45.5645 64.8995 43.1536 65.5535 40.7454C65.5744 40.6684 65.654 40.6219 65.7297 40.6431C65.7597 40.6511 65.7845 40.6684 65.8028 40.6909L73.8894 50.6493L81.9459 60.6328C81.9968 60.6953 81.9877 60.7869 81.9264 60.8374C81.9133 60.848 81.8989 60.856 81.8833 60.8626C79.8744 61.6012 77.8641 62.3357 75.8526 63.061L57.8598 69.5604Z" fill="black"/>
<path d="M57.8598 69.5604L69.7854 65.0707L75.7795 62.8259C77.778 62.0754 79.783 61.3302 81.7867 60.5903C81.8611 60.5624 81.9433 60.6023 81.9694 60.678C81.989 60.7325 81.9733 60.7922 81.9355 60.8308L71.5776 71.3988L61.1924 81.9389C61.1362 81.996 61.0462 81.996 60.99 81.9389C60.9718 81.9203 60.9587 81.8964 60.9522 81.8725C60.6833 80.8417 60.4157 79.8083 60.1585 78.7762L59.3806 75.6866C59.1195 74.6584 58.8662 73.633 58.6143 72.6115L57.8598 69.5604ZM57.8598 69.5604L58.7201 72.6461C59.0072 73.6715 59.2918 74.6917 59.5698 75.7091L60.4079 78.7563C60.6885 79.7698 60.96 80.7833 61.2302 81.7981L60.99 81.733L71.3479 71.165L81.7332 60.6249L81.8833 60.8653C79.8926 61.5972 77.9007 62.3251 75.9035 63.0464L69.9094 65.2182L57.8598 69.5604Z" fill="black"/>
<path d="M32.7569 74.1749C32.749 74.1749 32.7399 74.1736 32.7321 74.1696C32.7138 74.1617 32.6994 74.1457 32.6942 74.1258L25.1011 45.2909C25.0945 45.2683 25.1011 45.2431 25.118 45.2271L45.8612 24.119C45.8781 24.1017 45.9016 24.0951 45.9238 24.1017C45.946 24.1083 45.9643 24.1256 45.9695 24.1482L55.5885 60.6807C55.5964 60.7099 55.5833 60.7404 55.5585 60.755L32.7895 74.1656C32.7791 74.1723 32.7673 74.1749 32.7569 74.1749ZM25.2368 45.2935L32.7973 74.0076L55.4502 60.666L45.8729 24.2943L25.2368 45.2935Z" fill="black"/>
<path d="M81.8363 60.7922L55.5272 60.7643C55.4972 60.7643 55.4724 60.7444 55.4645 60.7152L45.8442 24.1827C45.8377 24.1601 45.8442 24.1349 45.8612 24.119C45.8781 24.1017 45.9016 24.0951 45.9238 24.1017L74.2601 31.8271C74.2823 31.8338 74.3006 31.8511 74.3058 31.8736L81.8989 60.7085C81.9042 60.7285 81.9002 60.7497 81.8872 60.7657C81.8754 60.7829 81.8559 60.7922 81.8363 60.7922ZM55.5768 60.6315L81.7501 60.6594L74.1896 31.9454L45.9995 24.2598L55.5768 60.6315Z" fill="black"/>
</svg>
