<svg width="187" height="42" viewBox="0 0 187 42" fill="none" xmlns="http://www.w3.org/2000/svg">
<path d="M5 30.8114V14.2699C5 13.413 5.99952 12.9448 6.65788 13.4934L14.4447 19.9825C14.5946 20.1074 14.8124 20.1074 14.9624 19.9825L22.7492 13.4934C23.4076 12.9448 24.4071 13.413 24.4071 14.2699V30.8114" stroke="black" stroke-width="3.84099" stroke-linecap="round"/>
<path d="M35.3232 14.1334H44.6225" stroke="black" stroke-width="3.84099" stroke-linecap="round"/>
<path d="M35.3232 22.2197H44.6225" stroke="black" stroke-width="3.84099" stroke-linecap="round"/>
<path d="M35.3232 30.306H44.6225" stroke="black" stroke-width="3.84099" stroke-linecap="round"/>
<path d="M53.9219 13.6281H59.6834C60.3532 13.6281 60.8963 14.1711 60.8963 14.841V30.4071" stroke="black" stroke-width="3.84099" stroke-linecap="round"/>
<path d="M71.1055 30.4071L77.6596 13.8492C78.0642 12.8272 79.5107 12.8272 79.9152 13.8492L86.4694 30.4071" stroke="black" stroke-width="3.84099" stroke-linecap="round"/>
<path d="M140.445 12.3141C140.445 12.3141 140.445 17.5974 140.445 21.0068C140.445 24.4162 140.445 29.6996 140.445 29.6996" stroke="black" stroke-width="3.84099" stroke-linecap="round"/>
<path d="M151.766 30.1038C151.766 30.1038 151.766 24.5629 151.766 21.0068C151.766 19.6562 151.766 18.0193 151.766 16.5084C151.766 13.9684 153.825 11.9097 156.365 11.9097V11.9097C158.905 11.9097 160.964 13.9688 160.964 16.5088L160.964 19.8949M159.549 25.4542L162.985 30.1038" stroke="black" stroke-width="3.84099" stroke-linecap="round"/>
<path d="M105.674 24.2413C105.674 24.2413 105.674 20.7354 105.674 18.4798C105.674 18.255 105.674 18.0176 105.674 17.7726C105.674 14.9814 103.412 12.7184 100.62 12.7184V12.7184C97.8291 12.7184 95.5664 14.9809 95.5664 17.7721C95.5664 18.9887 95.5664 20.2438 95.5664 21.31C95.5664 22.1409 95.5664 23.0865 95.5664 24.0391C95.5664 27.2769 98.1912 29.9017 101.429 29.9017H109.717" stroke="black" stroke-width="3.84099" stroke-linecap="round"/>
<path d="M118.612 12.7183C118.612 12.7183 118.612 17.951 118.612 21.31C118.612 22.3763 118.612 23.6314 118.612 24.8479C118.612 27.6392 120.875 29.9017 123.666 29.9017V29.9017C126.457 29.9017 128.72 27.6392 128.72 24.8479C128.72 23.6314 128.72 22.3763 128.72 21.31C128.72 17.951 128.72 12.7183 128.72 12.7183" stroke="black" stroke-width="3.84099" stroke-linecap="round"/>
<path d="M171.901 30.1039C171.901 30.1039 171.103 23.144 172.285 19.7938C173.959 15.0514 178.653 12.314 178.653 12.314M181.2 29.6995L173.543 17.2669" stroke="black" stroke-width="3.84099" stroke-linecap="round"/>
</svg>
