<svg width="631" height="529" viewBox="0 0 631 529" fill="none" xmlns="http://www.w3.org/2000/svg">
<path d="M462.899 300.429C462.758 300.429 462.616 300.393 462.486 300.321C462.097 300.104 461.92 299.647 462.073 299.226L477.14 256.019C477.293 255.598 477.718 255.345 478.154 255.442C478.591 255.538 478.886 255.935 478.862 256.392L477.175 281.376C477.163 281.544 477.104 281.712 476.998 281.857L463.619 300.092C463.442 300.297 463.17 300.429 462.899 300.429ZM476.656 262.803L465.695 294.21L475.417 280.955L476.656 262.803Z" fill="black"/>
<path d="M462.262 334.771C462.227 334.771 462.179 334.771 462.144 334.759C461.707 334.699 461.377 334.302 461.377 333.857C461.554 320.914 461.672 313.745 462.026 299.503C462.026 299.31 462.097 299.13 462.203 298.986L475.582 280.75C475.842 280.401 476.29 280.293 476.679 280.485C477.057 280.678 477.258 281.111 477.14 281.532L463.111 334.11C463.005 334.507 462.651 334.771 462.262 334.771ZM463.784 299.84C463.513 311.075 463.383 317.895 463.241 326.736L474.214 285.622L463.784 299.84Z" fill="black"/>
<path d="M462.911 300.429C462.887 300.429 462.864 300.429 462.84 300.429C462.439 300.393 462.109 300.092 462.038 299.695L460.952 293.741C458.841 282.17 457.448 274.519 454.923 261.203C454.876 260.963 454.923 260.722 455.065 260.53C455.207 260.337 455.395 260.193 455.631 260.145C457.897 259.7 460.197 259.291 462.439 258.882C468.645 257.751 474.509 256.693 477.67 255.466C477.989 255.345 478.355 255.418 478.603 255.67C478.85 255.911 478.933 256.284 478.815 256.62L463.749 299.828C463.607 300.189 463.277 300.429 462.911 300.429ZM456.835 261.757C459.253 274.531 460.634 282.097 462.699 293.416L463.182 296.063L476.55 257.751C473.116 258.786 468.055 259.7 462.758 260.662C460.799 261.011 458.805 261.372 456.835 261.757Z" fill="black"/>
<path d="M462.262 334.771C461.814 334.771 461.436 334.423 461.377 333.965C458.416 306.492 457.165 291.684 454.912 261.095C454.876 260.614 455.207 260.193 455.679 260.133C456.139 260.073 456.575 260.385 456.67 260.854C459.194 274.182 460.587 281.821 462.699 293.404L463.784 299.359C463.796 299.419 463.796 299.479 463.796 299.551C463.442 313.793 463.324 320.95 463.147 333.893C463.135 334.374 462.769 334.759 462.309 334.783C462.286 334.771 462.274 334.771 462.262 334.771ZM457.873 276.961C459.088 292.719 460.115 304.567 461.59 319.122C461.696 313.324 461.814 307.562 462.014 299.599L460.952 293.741C459.82 287.51 458.888 282.41 457.873 276.961Z" fill="black"/>
<path d="M462.262 334.771C462.061 334.771 461.873 334.699 461.707 334.579C456.74 330.525 453.921 328.492 447.314 324.234C447.019 324.042 446.865 323.693 446.913 323.344C449.225 306.347 450.641 295.028 452.434 280.714C453.177 274.796 453.98 268.397 454.924 260.927C454.983 260.47 455.372 260.097 455.82 260.145C456.269 260.157 456.646 260.518 456.681 260.975C458.935 291.528 460.186 306.335 463.147 333.785C463.182 334.146 463.005 334.495 462.699 334.675C462.557 334.735 462.404 334.771 462.262 334.771ZM448.741 323.019C454.322 326.628 457.189 328.649 461.153 331.824C458.64 308.416 457.389 294.078 455.572 269.912C455.077 273.834 454.629 277.466 454.192 280.943C452.411 295.1 451.007 306.335 448.741 323.019Z" fill="black"/>
<path d="M440.978 369.727C440.86 369.727 440.73 369.703 440.612 369.643C440.247 369.474 440.034 369.065 440.105 368.656C443.019 352.261 444.282 343.204 446.901 323.332C446.936 323.031 447.125 322.767 447.408 322.634C447.679 322.502 447.998 322.526 448.258 322.694C454.935 327.001 457.79 329.046 462.817 333.159C463.135 333.424 463.241 333.869 463.064 334.242C456.292 349.266 451.891 356.495 441.662 369.39C441.497 369.619 441.238 369.727 440.978 369.727ZM448.47 324.98C446.157 342.494 444.895 351.539 442.453 365.481C450.924 354.559 455.112 347.462 461.153 334.122C456.823 330.609 454.039 328.601 448.47 324.98Z" fill="black"/>
<path d="M447.786 324.366C447.585 324.366 447.396 324.306 447.243 324.174C440.648 318.881 437.014 316.211 428.767 310.582C428.366 310.305 428.248 309.751 428.519 309.33C440.53 290.806 445.969 280.798 454.994 260.65C455.171 260.241 455.62 260.037 456.044 260.157C456.469 260.277 456.74 260.698 456.681 261.143C455.738 268.613 454.935 275.012 454.192 280.931C452.399 295.257 450.983 306.576 448.67 323.585C448.623 323.909 448.423 324.174 448.128 324.294C448.01 324.342 447.892 324.366 447.786 324.366ZM430.478 309.583C437.769 314.563 441.403 317.221 447.125 321.792C449.319 305.65 450.7 294.595 452.434 280.714C452.977 276.396 453.543 271.825 454.18 266.761C446.582 283.336 441.108 293.14 430.478 309.583Z" fill="black"/>
<path d="M440.978 369.727C440.565 369.727 440.199 369.438 440.117 369.017C435.386 347.341 433.026 335 428.378 309.992C428.307 309.631 428.46 309.27 428.755 309.066C429.05 308.861 429.439 308.861 429.734 309.066C438.028 314.719 441.686 317.402 448.328 322.743C448.576 322.935 448.694 323.26 448.659 323.573C446.028 343.48 444.765 352.55 441.851 368.969C441.78 369.39 441.415 369.703 441.002 369.715C440.99 369.727 440.978 369.727 440.978 369.727ZM430.513 311.784C434.583 333.665 436.908 345.79 440.884 364.23C443.243 350.613 444.506 341.532 446.842 323.861C440.966 319.158 437.403 316.512 430.513 311.784Z" fill="black"/>
<path d="M402.61 377.437C402.327 377.437 402.067 377.305 401.891 377.064C401.69 376.788 401.666 376.427 401.82 376.114C413.641 352.754 419.069 338.356 428.413 309.547C428.543 309.162 428.908 308.909 429.31 308.934C429.711 308.958 430.041 309.258 430.124 309.667C434.76 334.651 437.12 346.98 441.851 368.632C441.957 369.113 441.662 369.595 441.19 369.703C428.448 372.698 420.296 374.43 402.764 377.413C402.705 377.437 402.657 377.437 402.61 377.437ZM429.015 313.42C420.862 338.404 415.222 353.392 404.203 375.344C420.119 372.614 428.118 370.918 439.928 368.151C435.539 348.003 433.191 335.854 429.015 313.42Z" fill="black"/>
<path d="M409.441 400.22C409.347 400.22 409.264 400.208 409.17 400.172C408.899 400.088 408.686 399.871 408.604 399.606C405.902 391.499 404.557 387.024 401.749 376.776C401.678 376.523 401.725 376.271 401.855 376.054C401.985 375.838 402.209 375.693 402.457 375.645C419.93 372.674 428.071 370.942 440.777 367.947C441.143 367.863 441.521 368.019 441.721 368.344C441.922 368.668 441.898 369.089 441.662 369.39C430.761 383.139 423.953 389.719 409.961 400.039C409.807 400.16 409.63 400.22 409.441 400.22ZM403.719 377.257C406.209 386.303 407.53 390.765 409.89 397.874C422.384 388.588 429.038 382.237 438.654 370.304C427.516 372.891 419.423 374.575 403.719 377.257Z" fill="black"/>
<path d="M455.797 261.937C455.584 261.937 455.384 261.865 455.23 261.721C455.03 261.54 454.912 261.288 454.912 261.011C455.23 243.581 455.466 234.68 456.115 217.719C456.127 217.31 456.41 216.974 456.799 216.877C457.189 216.781 457.59 216.962 457.779 217.322L478.756 255.875C478.886 256.103 478.897 256.38 478.815 256.62C478.732 256.861 478.544 257.065 478.296 257.15C474.992 258.437 469.046 259.507 462.746 260.65C460.516 261.059 458.227 261.468 455.962 261.913C455.903 261.937 455.856 261.937 455.797 261.937ZM457.755 221.015C457.212 235.594 456.976 244.363 456.693 259.94C458.616 259.579 460.54 259.219 462.427 258.882C468.043 257.859 473.388 256.897 476.691 255.814L457.755 221.015Z" fill="black"/>
<path d="M477.977 257.21C477.659 257.21 477.364 257.041 477.199 256.741L456.221 218.188C456.009 217.804 456.103 217.31 456.445 217.034C456.788 216.757 457.283 216.781 457.59 217.082L474.98 233.706C475.122 233.838 475.216 234.018 475.252 234.211L478.839 256.139C478.909 256.572 478.662 256.993 478.26 257.138C478.178 257.198 478.072 257.21 477.977 257.21ZM460.504 222.35L476.255 251.292L473.565 234.836L460.504 222.35Z" fill="black"/>
<path d="M455.797 261.937C455.49 261.937 455.195 261.769 455.03 261.492C445.969 245.53 440.282 237.374 427.339 221.869C427.127 221.617 427.068 221.256 427.198 220.943C427.316 220.63 427.599 220.414 427.929 220.378C441.78 218.97 447.727 218.249 456.87 216.853C457.142 216.817 457.389 216.889 457.59 217.07C457.79 217.25 457.897 217.503 457.885 217.779C457.248 234.74 457 243.629 456.681 261.035C456.67 261.444 456.398 261.793 456.021 261.889C455.938 261.925 455.867 261.937 455.797 261.937ZM429.77 222.014C441.285 235.883 446.971 243.942 454.959 257.799C455.242 242.787 455.49 234.018 456.056 218.814C447.833 220.053 441.957 220.763 429.77 222.014Z" fill="black"/>
<path d="M429.251 310.738C429.168 310.738 429.085 310.726 429.003 310.702C428.637 310.594 428.378 310.245 428.366 309.86C427.587 274.206 427.363 254.551 427.127 221.292C427.127 220.907 427.351 220.57 427.705 220.438C428.047 220.306 428.448 220.414 428.684 220.702C441.71 236.304 447.443 244.507 456.563 260.59C456.705 260.843 456.717 261.155 456.599 261.42C447.526 281.676 442.063 291.732 429.982 310.341C429.817 310.594 429.546 310.738 429.251 310.738ZM428.908 223.758C429.133 254.624 429.357 273.954 430.065 306.913C440.931 290.024 446.275 280.052 454.794 261.071C446.252 246.035 440.648 237.94 428.908 223.758Z" fill="black"/>
<path d="M428.012 222.182C427.681 222.182 427.386 222.002 427.233 221.701C427.068 221.376 427.103 220.979 427.339 220.702C440.164 205.197 445.992 197.475 455.69 183.113C455.915 182.788 456.304 182.643 456.681 182.764C457.047 182.872 457.307 183.221 457.307 183.618C457.495 196.825 457.59 203.802 457.885 217.743C457.897 218.2 457.566 218.585 457.13 218.658C447.951 220.053 441.981 220.787 428.106 222.194C428.071 222.182 428.035 222.182 428.012 222.182ZM455.572 186.457C447.089 198.918 441.32 206.545 430.1 220.161C442.052 218.934 447.868 218.225 456.103 216.974C455.832 204.56 455.726 197.679 455.572 186.457Z" fill="black"/>
<path d="M402.61 377.437C402.457 377.437 402.292 377.389 402.162 377.305C394.269 372.518 389.892 369.883 382.07 365.192L380.146 364.037C379.899 363.893 379.745 363.628 379.71 363.34C379.686 363.051 379.792 362.762 380.005 362.582C401.454 343.54 411.895 332.089 428.543 309.306C428.802 308.958 429.274 308.837 429.664 309.042C430.053 309.246 430.23 309.703 430.1 310.124C421.145 337.755 415.458 353.151 403.401 376.956C403.295 377.173 403.094 377.341 402.858 377.413C402.775 377.425 402.693 377.437 402.61 377.437ZM382.081 363.111L382.954 363.64C390.505 368.175 394.847 370.786 402.244 375.272C413.04 353.849 418.467 339.872 426.69 314.792C412.002 334.531 401.619 345.718 382.081 363.111Z" fill="black"/>
<path d="M429.251 310.738C428.932 310.738 428.625 310.557 428.472 310.257C424.602 302.859 422.585 299.07 418.29 291.167C418.196 290.999 418.16 290.806 418.184 290.614C419.529 280.233 420.614 271.692 421.629 263.645C423.363 249.969 424.862 238.156 427.139 221.16C427.198 220.69 427.611 220.354 428.071 220.378C428.531 220.414 428.897 220.799 428.897 221.268C429.133 254.515 429.357 274.17 430.135 309.812C430.147 310.233 429.876 310.594 429.475 310.702C429.404 310.726 429.321 310.738 429.251 310.738ZM419.977 290.554C423.493 297.025 425.487 300.742 428.283 306.083C427.67 277.394 427.422 259.014 427.221 233.982C425.805 244.808 424.661 253.842 423.387 263.874C422.372 271.849 421.299 280.305 419.977 290.554Z" fill="black"/>
<path d="M380.583 364.158C380.371 364.158 380.17 364.085 380.005 363.929C379.674 363.628 379.604 363.123 379.851 362.75C397.053 336.275 405.265 319.723 418.255 290.349C418.396 290.036 418.691 289.832 419.022 289.82C419.364 289.796 419.67 289.988 419.836 290.289C424.142 298.204 426.159 302.005 430.029 309.403C430.194 309.715 430.159 310.088 429.958 310.365C413.217 333.268 402.728 344.779 381.161 363.929C380.996 364.085 380.783 364.158 380.583 364.158ZM419.14 292.743C407.436 319.122 399.495 335.204 384.901 358.179C403.011 341.76 413.063 330.441 428.212 309.751C424.767 303.184 422.773 299.443 419.14 292.743Z" fill="black"/>
<path d="M383.65 415.773C383.391 415.773 383.143 415.665 382.978 415.448C382.718 415.136 382.695 414.678 382.931 414.354C390.788 402.926 394.528 394.807 401.784 376.198C401.926 375.838 402.28 375.609 402.657 375.633C403.035 375.657 403.365 375.922 403.46 376.295C406.256 386.507 407.589 390.97 410.279 399.029C410.409 399.402 410.279 399.823 409.961 400.052C400.215 407.245 394.882 410.456 384.028 415.689C383.91 415.737 383.78 415.773 383.65 415.773ZM402.457 379.338C396.334 394.903 392.641 402.89 386.258 412.598C394.977 408.279 399.908 405.212 408.403 398.981C406.067 391.956 404.734 387.59 402.457 379.338Z" fill="black"/>
<path d="M347.206 419.646C346.852 419.646 346.521 419.43 346.38 419.081C346.238 418.708 346.345 418.287 346.651 418.035L367.912 401.014C368.254 400.737 368.738 400.761 369.056 401.062C375.274 406.908 378.247 409.482 384.193 414.161C384.476 414.39 384.606 414.763 384.5 415.124C384.406 415.472 384.111 415.737 383.745 415.773C369.445 417.421 362.036 418.167 347.277 419.646C347.253 419.646 347.229 419.646 347.206 419.646ZM368.407 402.902L350.132 417.541C362.237 416.326 369.445 415.593 381.397 414.221C376.642 410.444 373.693 407.858 368.407 402.902Z" fill="black"/>
<path d="M383.65 415.773C383.45 415.773 383.261 415.713 383.108 415.581C377.114 410.865 374.118 408.267 367.853 402.385C367.652 402.193 367.546 401.916 367.569 401.627C367.593 401.339 367.758 401.086 367.994 400.942C382.317 392.293 389.314 387.133 402.02 375.85C402.327 375.573 402.775 375.549 403.118 375.789C403.448 376.03 403.578 376.475 403.424 376.86C396.109 395.613 392.322 403.805 384.37 415.376C384.229 415.581 384.016 415.713 383.78 415.749C383.745 415.773 383.698 415.773 383.65 415.773ZM369.929 401.88C375.321 406.92 378.27 409.47 383.462 413.572C390.47 403.263 394.186 395.457 400.439 379.639C389.597 389.129 382.636 394.169 369.929 401.88Z" fill="black"/>
<path d="M368.454 402.626C368.254 402.626 368.041 402.554 367.876 402.409C367.593 402.157 367.487 401.748 367.629 401.399C372.442 388.829 374.873 380.793 379.722 363.015C379.792 362.75 379.993 362.522 380.241 362.426C380.5 362.317 380.784 362.341 381.02 362.486L382.943 363.64C390.765 368.344 395.142 370.966 403.047 375.766C403.295 375.91 403.448 376.174 403.471 376.463C403.495 376.752 403.389 377.028 403.177 377.221C390.375 388.6 383.332 393.797 368.891 402.505C368.761 402.578 368.608 402.626 368.454 402.626ZM381.126 364.627C376.772 380.541 374.365 388.564 370.212 399.606C382.754 391.944 389.644 386.82 401.112 376.668C393.868 372.277 389.538 369.667 382.07 365.192L381.126 364.627Z" fill="black"/>
<path d="M368.454 402.626C368.419 402.626 368.372 402.626 368.325 402.614C344.681 399.185 330.877 397.429 308.012 394.518L302.915 393.869C302.479 393.809 302.148 393.448 302.137 393.003C302.125 392.558 302.432 392.173 302.856 392.088L307.812 391.15C315.882 389.623 321.32 388.6 330.617 386.796C330.783 386.76 330.948 386.784 331.089 386.844C346.71 392.87 354.332 395.649 368.738 400.882C369.162 401.038 369.41 401.495 369.304 401.952C369.221 402.349 368.855 402.626 368.454 402.626ZM308.803 392.798C328.447 395.3 341.425 396.96 359.971 399.594C350.32 396.07 342.982 393.339 330.712 388.612C321.816 390.332 316.448 391.343 308.803 392.798Z" fill="black"/>
<path d="M368.454 402.626C368.36 402.626 368.254 402.614 368.159 402.578C353.742 397.345 346.12 394.554 330.488 388.528C330.146 388.396 329.921 388.071 329.921 387.698C329.91 387.325 330.134 386.988 330.464 386.844C351.111 377.919 361.187 373.143 380.17 362.462C380.477 362.281 380.866 362.317 381.149 362.546C381.432 362.774 381.55 363.147 381.456 363.496C376.583 381.335 374.153 389.406 369.304 402.048C369.139 402.409 368.808 402.626 368.454 402.626ZM333.178 387.638C347.147 393.015 354.698 395.769 367.947 400.581C372.371 388.961 374.79 381.07 379.167 365.084C361.906 374.743 351.878 379.518 333.178 387.638Z" fill="black"/>
<path d="M380.583 364.158C380.5 364.158 380.418 364.146 380.335 364.122C379.958 364.013 379.71 363.665 379.698 363.268C379.533 350.89 379.486 340.906 379.427 330.345C379.368 319.579 379.309 308.452 379.132 293.477C379.132 292.995 379.486 292.598 379.958 292.562L380.713 292.514C396.935 291.42 405.076 290.866 418.998 289.832C419.317 289.808 419.611 289.952 419.788 290.217C419.965 290.481 420.001 290.818 419.871 291.107C406.834 320.577 398.599 337.177 381.326 363.761C381.149 364.013 380.878 364.158 380.583 364.158ZM380.913 294.307C381.09 308.861 381.137 319.772 381.196 330.333C381.244 340.04 381.291 349.266 381.432 360.308C397.301 335.649 405.395 319.362 417.641 291.744C404.628 292.707 396.499 293.26 380.913 294.307Z" fill="black"/>
<path d="M330.794 388.588C330.665 388.588 330.523 388.552 330.405 388.492C330.169 388.372 330.004 388.167 329.945 387.914C326.17 373.299 324.246 364.434 320.388 345.188C320.329 344.875 320.424 344.551 320.66 344.334C320.896 344.118 321.214 344.045 321.509 344.142C332.269 347.474 340.67 350.036 348.633 352.466C358.685 355.533 368.183 358.432 380.842 362.389C381.185 362.498 381.421 362.798 381.468 363.159C381.503 363.52 381.326 363.869 381.02 364.037C361.977 374.767 351.866 379.554 331.148 388.504C331.03 388.564 330.912 388.588 330.794 388.588ZM322.418 346.307C325.981 364.049 327.892 372.83 331.396 386.435C350.757 378.063 360.797 373.299 378.329 363.484C366.661 359.839 357.647 357.085 348.138 354.186C340.516 351.876 332.493 349.434 322.418 346.307Z" fill="black"/>
<path d="M380.583 364.158C380.264 364.158 379.969 363.989 379.816 363.701C366.708 340.028 359.193 324.595 346.746 299.034L341.271 287.811C341.13 287.51 341.153 287.149 341.342 286.873C341.531 286.596 341.861 286.464 342.192 286.512C357.942 288.942 365.788 290.169 380.158 292.574C380.583 292.647 380.89 293.019 380.901 293.452C381.078 308.44 381.137 319.567 381.196 330.333C381.255 340.894 381.303 350.866 381.468 363.243C381.468 363.652 381.208 364.025 380.819 364.122C380.736 364.146 380.654 364.158 380.583 364.158ZM343.607 288.557L348.327 298.228C360.219 322.634 367.605 337.791 379.651 359.731C379.521 348.941 379.474 339.884 379.427 330.345C379.368 319.759 379.32 308.825 379.144 294.234C365.753 291.997 357.989 290.77 343.607 288.557Z" fill="black"/>
<path d="M380.583 364.158C380.5 364.158 380.406 364.146 380.323 364.122C367.676 360.164 358.178 357.265 348.126 354.198C340.15 351.768 331.75 349.206 320.99 345.874C320.754 345.802 320.554 345.633 320.447 345.405C320.341 345.176 320.329 344.912 320.424 344.683C328.447 323.933 332.493 312.41 341.224 287.113C341.342 286.777 341.649 286.536 342.003 286.512C342.368 286.488 342.687 286.692 342.852 287.005L348.327 298.228C360.762 323.765 368.277 339.174 381.362 362.81C381.539 363.135 381.503 363.532 381.279 363.821C381.102 364.037 380.842 364.158 380.583 364.158ZM322.429 344.43C332.753 347.618 340.894 350.108 348.633 352.466C358.119 355.353 367.109 358.095 378.719 361.728C366.272 339.15 358.839 323.873 346.734 299.034L342.191 289.724C334.063 313.288 330.004 324.775 322.429 344.43Z" fill="black"/>
<path d="M303.033 393.869C302.762 393.869 302.502 393.748 302.337 393.52C302.137 393.255 302.089 392.894 302.231 392.594C309.345 376.872 313.014 366.852 320.412 344.719C320.542 344.334 320.919 344.07 321.309 344.106C321.71 344.13 322.04 344.43 322.123 344.827C325.969 364.025 327.892 372.878 331.656 387.445C331.715 387.686 331.679 387.951 331.549 388.155C331.42 388.372 331.207 388.516 330.971 388.564C321.674 390.356 316.235 391.391 308.165 392.918L303.21 393.857C303.139 393.869 303.092 393.869 303.033 393.869ZM321.037 348.436C314.536 367.778 310.903 377.606 304.555 391.764L307.835 391.138C315.634 389.659 320.966 388.648 329.709 386.964C326.287 373.745 324.388 365.084 321.037 348.436Z" fill="black"/>
<path d="M380.017 294.367C379.698 294.367 379.391 294.186 379.238 293.898C379.073 293.585 379.096 293.212 379.309 292.923C400.203 264.644 409.607 250.113 427.257 220.811C427.481 220.45 427.917 220.294 428.307 220.438C428.696 220.582 428.944 220.991 428.885 221.412C426.62 238.409 425.121 250.221 423.387 263.886C422.36 271.933 421.287 280.473 419.942 290.854C419.883 291.275 419.552 291.6 419.128 291.636C405.206 292.671 397.053 293.224 380.831 294.319L380.076 294.367C380.052 294.367 380.04 294.367 380.017 294.367ZM426.572 225.394C410.586 251.833 401.159 266.292 381.893 292.43C397.065 291.408 405.135 290.866 418.278 289.88C419.576 279.824 420.638 271.5 421.629 263.645C423.21 251.135 424.602 240.189 426.572 225.394Z" fill="black"/>
<path d="M428.012 222.182C427.894 222.182 427.776 222.158 427.67 222.11C427.316 221.953 427.091 221.581 427.139 221.184C430.194 191.1 431.752 177.254 434.749 153.846C434.796 153.474 435.055 153.173 435.409 153.089C435.763 153.004 436.129 153.137 436.341 153.438L457.142 183.1C457.354 183.413 457.366 183.822 457.153 184.135C447.42 198.557 441.568 206.304 428.696 221.857C428.507 222.074 428.26 222.182 428.012 222.182ZM436.2 156.348C433.486 177.639 431.941 191.328 429.18 218.453C440.589 204.596 446.311 196.958 455.325 183.63L436.2 156.348Z" fill="black"/>
<path d="M380.017 294.367C379.946 294.367 379.863 294.355 379.792 294.343C379.45 294.246 379.191 293.946 379.144 293.585L378.554 288.942C375.875 267.795 374.271 255.033 371.05 232.346C370.979 231.865 371.31 231.408 371.781 231.324C397.879 226.801 409.017 224.708 427.823 220.402C428.165 220.318 428.531 220.462 428.731 220.763C428.932 221.063 428.956 221.448 428.767 221.761C411.081 251.111 401.666 265.666 380.725 294.006C380.559 294.234 380.288 294.367 380.017 294.367ZM372.926 232.96C376.064 255.117 377.669 267.819 380.312 288.713L380.618 291.155C400.18 264.608 409.571 250.125 426.159 222.639C407.707 226.813 395.873 228.978 372.926 232.96Z" fill="black"/>
<path d="M380.017 294.367C379.969 294.367 379.922 294.367 379.875 294.355C365.517 291.949 357.671 290.722 341.932 288.304C341.637 288.256 341.389 288.076 341.271 287.799C341.141 287.534 341.153 287.222 341.295 286.957C352.845 266.4 358.792 255.153 368.643 236.52L371.144 231.793C371.321 231.456 371.699 231.264 372.076 231.336C372.454 231.408 372.737 231.709 372.796 232.094C376.017 254.792 377.633 267.555 380.3 288.713L380.89 293.356C380.925 293.633 380.831 293.922 380.63 294.126C380.465 294.271 380.241 294.367 380.017 294.367ZM343.466 286.704C357.954 288.942 365.729 290.157 378.99 292.37L378.554 288.93C375.993 268.637 374.401 256.067 371.427 235.041L370.2 237.362C360.526 255.67 354.615 266.857 343.466 286.704Z" fill="black"/>
<path d="M321.25 345.91C321.155 345.91 321.061 345.898 320.967 345.862C293.901 336.6 279.779 331.692 254.495 321.419C254.153 321.287 253.929 320.938 253.941 320.565C253.953 320.192 254.177 319.856 254.519 319.735C266.058 315.345 275.838 311.712 285.289 308.188C302.526 301.776 318.807 295.714 341.731 286.56C342.05 286.428 342.416 286.5 342.663 286.753C342.911 286.993 342.994 287.366 342.888 287.703C334.157 313.023 330.098 324.559 322.064 345.333C321.934 345.693 321.604 345.91 321.25 345.91ZM257.292 320.613C280.971 330.188 294.987 335.072 320.731 343.889C328.352 324.138 332.399 312.674 340.575 288.966C318.571 297.735 302.679 303.641 285.89 309.884C277.042 313.18 267.898 316.584 257.292 320.613Z" fill="black"/>
<path d="M255.191 359.611C254.991 359.611 254.79 359.539 254.637 359.406C254.436 359.238 254.307 358.985 254.307 358.709C254.236 346.223 254.153 338.609 254 325.99L253.941 320.589C253.941 320.289 254.082 320 254.33 319.832C254.578 319.663 254.885 319.627 255.156 319.735C280.392 329.996 294.503 334.892 321.533 344.142C321.91 344.274 322.158 344.647 322.135 345.056C322.111 345.465 321.816 345.802 321.427 345.886C308 348.713 297.771 350.818 287.872 352.839C277.691 354.932 268.075 356.904 255.38 359.575C255.321 359.611 255.262 359.611 255.191 359.611ZM255.722 321.913L255.77 325.966C255.911 338.212 256.006 345.742 256.065 357.602C268.24 355.04 277.608 353.115 287.519 351.082C296.603 349.218 305.983 347.293 317.852 344.803C293.217 336.359 279.272 331.463 255.722 321.913Z" fill="black"/>
<path d="M371.923 233.116C371.722 233.116 371.522 233.044 371.369 232.912C371.168 232.755 371.05 232.503 371.038 232.25C370.46 219.247 370.012 210.863 369.481 201.156C369.292 197.619 369.091 193.878 368.867 189.62C368.856 189.307 368.997 189.007 369.257 188.826C369.516 188.646 369.847 188.622 370.118 188.754C395.46 200.626 408.085 207.206 428.484 220.51C428.779 220.702 428.944 221.063 428.873 221.424C428.814 221.785 428.543 222.074 428.201 222.146C408.321 226.693 396.428 228.87 372.065 233.08C372.017 233.116 371.97 233.116 371.923 233.116ZM370.72 191.027C370.908 194.672 371.085 197.956 371.251 201.071C371.758 210.526 372.194 218.73 372.761 231.155C397.195 226.921 408.391 224.816 425.735 220.883C406.822 208.626 394.363 202.118 370.72 191.027Z" fill="black"/>
<path d="M428.012 222.182C427.658 222.182 427.339 221.966 427.198 221.629C420.567 205.486 417.039 197.571 409.205 182.559C409.028 182.222 409.087 181.801 409.347 181.513C420.083 169.869 425.357 164.071 434.985 153.341C435.244 153.053 435.657 152.968 436.011 153.137C436.365 153.305 436.565 153.678 436.518 154.075C433.522 177.459 431.964 191.292 428.908 221.364C428.861 221.773 428.554 222.098 428.153 222.17C428.094 222.182 428.047 222.182 428.012 222.182ZM411.058 182.283C418.184 195.959 421.747 203.79 427.493 217.683C430.194 191.172 431.74 177.519 434.383 156.685C426.018 165.984 420.791 171.721 411.058 182.283Z" fill="black"/>
<path d="M428.012 222.182C427.847 222.182 427.681 222.134 427.54 222.038C407.235 208.782 394.658 202.226 369.398 190.39C369.044 190.221 368.844 189.849 368.891 189.452C368.938 189.055 369.233 188.742 369.611 188.682L375.805 187.587C388.924 185.266 396.841 183.858 409.819 181.248C410.196 181.164 410.586 181.356 410.775 181.705C418.644 196.777 422.183 204.716 428.838 220.919C428.991 221.28 428.885 221.701 428.59 221.953C428.413 222.11 428.212 222.182 428.012 222.182ZM372.702 189.969C395.378 200.638 407.754 207.122 426.089 218.97C420.225 204.764 416.685 196.946 409.5 183.149C396.876 185.687 389.007 187.082 376.088 189.367L372.702 189.969Z" fill="black"/>
<path d="M342.062 288.304C341.944 288.304 341.826 288.28 341.708 288.232C341.295 288.052 341.082 287.582 341.212 287.137C347.513 265.943 351.949 249.8 356.231 234.199C360.172 219.86 363.888 206.316 368.903 189.319C369.021 188.898 369.434 188.634 369.858 188.682C370.283 188.73 370.613 189.091 370.637 189.524C370.861 193.782 371.062 197.523 371.251 201.059C371.77 210.767 372.218 219.163 372.808 232.166C372.82 232.334 372.784 232.491 372.702 232.635L370.2 237.362C360.337 256.007 354.391 267.266 342.829 287.847C342.663 288.148 342.368 288.304 342.062 288.304ZM369.15 194.804C364.856 209.516 361.482 221.785 357.942 234.692C354.179 248.381 350.309 262.49 345.153 280.064C354.296 263.657 359.948 252.964 368.643 236.52L371.026 232.01C370.448 219.151 370 210.815 369.481 201.168C369.375 199.135 369.268 197.03 369.15 194.804Z" fill="black"/>
<path d="M254.826 321.48C254.531 321.48 254.248 321.323 254.082 321.059C253.858 320.698 253.905 320.229 254.2 319.928C275.425 298.372 286.41 287.282 308.661 264.884C308.956 264.583 309.428 264.535 309.77 264.776C318.076 270.345 323.798 274.146 330.075 278.332C333.815 280.822 337.744 283.445 342.545 286.644C342.817 286.825 342.97 287.161 342.947 287.486C342.911 287.823 342.699 288.112 342.392 288.232C319.445 297.398 303.151 303.448 285.914 309.872C276.464 313.384 266.695 317.029 255.156 321.419C255.038 321.468 254.932 321.48 254.826 321.48ZM309.392 266.701C288.51 287.715 277.561 298.781 258.342 318.292C268.252 314.539 276.9 311.315 285.289 308.2C302.125 301.933 318.041 296.015 340.139 287.21C335.986 284.431 332.47 282.097 329.107 279.86C322.972 275.77 317.38 272.041 309.392 266.701Z" fill="black"/>
<path d="M342.062 288.304C341.897 288.304 341.72 288.256 341.578 288.16C336.776 284.96 332.847 282.338 329.107 279.848C322.831 275.662 317.108 271.861 308.803 266.292C308.59 266.147 308.449 265.931 308.413 265.678C308.378 265.425 308.437 265.173 308.602 264.968L317.793 253.264C337.307 228.389 349.082 213.377 369.091 188.995C369.363 188.67 369.823 188.574 370.189 188.778C370.554 188.983 370.731 189.428 370.613 189.837C365.599 206.821 361.883 220.354 357.942 234.68C353.659 250.293 349.223 266.436 342.911 287.655C342.829 287.931 342.628 288.148 342.368 288.244C342.262 288.292 342.156 288.304 342.062 288.304ZM310.584 265.329C318.454 270.598 323.999 274.291 330.075 278.344C333.555 280.654 337.201 283.084 341.554 285.995C347.678 265.365 352.031 249.523 356.231 234.211C359.842 221.075 363.263 208.601 367.664 193.541C349.318 215.963 337.744 230.71 319.15 254.407L310.584 265.329Z" fill="black"/>
<path d="M255.191 359.611C254.814 359.611 254.472 359.358 254.354 358.985C246.036 332.955 241.482 316.572 233.188 282.735C233.082 282.29 233.318 281.833 233.73 281.676C234.155 281.52 234.627 281.7 234.828 282.097C242.827 297.675 246.945 305.361 255.581 320.12C255.663 320.253 255.699 320.409 255.711 320.577L255.77 325.978C255.923 338.597 256.006 346.223 256.076 358.709C256.076 359.154 255.758 359.539 255.333 359.599C255.286 359.611 255.239 359.611 255.191 359.611ZM236.715 289.627C243.334 316.307 247.641 331.824 254.283 352.887C254.224 343.576 254.141 336.528 254.012 326.002L253.953 320.842C246.697 308.44 242.615 301.019 236.715 289.627Z" fill="black"/>
<path d="M254.826 321.48C254.79 321.48 254.755 321.48 254.719 321.468C254.448 321.432 254.212 321.275 254.071 321.035C245.411 306.239 241.281 298.541 233.27 282.927C233.141 282.687 233.141 282.386 233.247 282.133C233.365 281.881 233.577 281.688 233.848 281.628C256.442 276.095 271.343 272.859 293.901 267.952C298.585 266.929 303.611 265.847 309.109 264.644C309.499 264.559 309.888 264.74 310.077 265.101C310.266 265.45 310.195 265.895 309.923 266.171C287.684 288.557 276.688 299.647 255.475 321.203C255.286 321.383 255.062 321.48 254.826 321.48ZM235.359 283.12C242.839 297.675 246.944 305.325 255.003 319.122C275.012 298.793 285.949 287.751 306.502 267.061C302.148 268.012 298.09 268.89 294.255 269.72C272.086 274.555 257.327 277.755 235.359 283.12Z" fill="black"/>
<path d="M309.286 266.448C309.027 266.448 308.779 266.328 308.602 266.123C301.205 257.102 297.205 252.182 290.633 244.147L288.451 241.476C288.285 241.284 288.215 241.019 288.25 240.766C288.285 240.514 288.427 240.285 288.639 240.141C315.032 222.519 331.549 212.27 352.456 199.279C357.683 196.031 363.216 192.603 369.28 188.814C369.646 188.586 370.13 188.658 370.413 188.995C370.696 189.331 370.696 189.825 370.425 190.161C350.438 214.52 338.664 229.532 319.15 254.395L309.959 266.099C309.805 266.316 309.558 266.436 309.286 266.448ZM290.456 241.091L292.002 242.98C298.349 250.762 302.314 255.622 309.275 264.114L317.793 253.264C336.163 229.856 347.678 215.181 365.646 193.205C361.34 195.887 357.293 198.401 353.412 200.807C332.718 213.654 316.342 223.83 290.456 241.091Z" fill="black"/>
<path d="M309.286 266.448C309.192 266.448 309.098 266.436 309.015 266.4L297.17 262.43C283.33 257.799 273.337 254.455 257.822 249.03C257.445 248.898 257.209 248.537 257.221 248.128C257.244 247.731 257.516 247.382 257.905 247.298C269.385 244.543 275.756 243.064 287.318 240.382L288.946 240.009C289.277 239.936 289.607 240.057 289.819 240.309L292.002 242.98C298.562 251.027 302.561 255.935 309.959 264.956C310.207 265.269 310.23 265.714 310.006 266.039C309.841 266.304 309.569 266.448 309.286 266.448ZM261.291 248.345C275.178 253.18 284.758 256.392 297.712 260.722L306.62 263.705C300.438 256.163 296.591 251.436 290.633 244.147L288.805 241.897L287.707 242.15C277.195 244.592 270.966 246.035 261.291 248.345Z" fill="black"/>
<path d="M234.049 283.421C233.766 283.421 233.483 283.276 233.318 283.024C233.105 282.711 233.105 282.314 233.318 282.001C242.52 268.397 247.287 261.516 257.386 247.635C257.622 247.322 258.023 247.19 258.389 247.322C273.892 252.747 283.885 256.091 297.712 260.71L309.558 264.68C309.935 264.812 310.183 265.173 310.159 265.582C310.136 265.991 309.853 266.328 309.463 266.412C303.965 267.615 298.939 268.697 294.255 269.72C271.721 274.615 256.831 277.851 234.25 283.384C234.191 283.408 234.12 283.421 234.049 283.421ZM258.424 249.247C249.092 262.093 244.325 268.926 236.09 281.087C257.445 275.878 272.098 272.703 293.89 267.964C297.653 267.146 301.629 266.279 305.9 265.353L297.158 262.43C283.507 257.859 273.585 254.551 258.424 249.247Z" fill="black"/>
<path d="M369.752 190.486C369.481 190.486 369.221 190.366 369.056 190.137C368.855 189.873 368.808 189.524 368.938 189.223C376.713 170.927 380.571 162.339 388.016 147.567C388.157 147.291 388.429 147.11 388.736 147.086C389.042 147.062 389.337 147.195 389.514 147.459C398.316 159.729 402.669 166.777 410.739 181.717C410.881 181.97 410.881 182.271 410.763 182.535C410.645 182.8 410.409 182.98 410.137 183.04C397.136 185.651 389.207 187.058 376.088 189.392L369.906 190.486C369.858 190.474 369.811 190.486 369.752 190.486ZM388.948 149.685C382.152 163.229 378.329 171.721 371.227 188.405L375.805 187.599C388.511 185.35 396.345 183.955 408.627 181.501C401.218 167.836 396.924 160.883 388.948 149.685Z" fill="black"/>
<path d="M409.972 183.04C409.937 183.04 409.902 183.04 409.866 183.028C409.583 182.992 409.335 182.824 409.205 182.571C401.183 167.704 396.841 160.703 388.098 148.506C387.898 148.217 387.874 147.832 388.051 147.519C388.228 147.207 388.559 147.038 388.913 147.074C408.922 149.203 418.998 150.49 435.763 153.065C436.082 153.113 436.353 153.341 436.471 153.654C436.589 153.967 436.506 154.316 436.294 154.568C426.655 165.298 421.381 171.096 410.645 182.752C410.456 182.944 410.22 183.04 409.972 183.04ZM390.694 149.083C398.516 160.077 402.823 167.066 410.161 180.623C419.93 170.025 425.157 164.287 433.84 154.604C418.62 152.283 408.745 151.02 390.694 149.083Z" fill="black"/>
<path d="M234.049 283.421L234.037 283.421C233.742 283.421 233.471 283.252 233.306 283C224.186 268.397 219.938 261.131 211.786 246.721C211.621 246.432 211.632 246.083 211.798 245.794C211.963 245.518 212.27 245.349 212.6 245.361C229.247 246.155 238.568 246.54 258.141 247.262C258.471 247.274 258.766 247.466 258.908 247.767C259.049 248.068 259.014 248.429 258.825 248.693C248.738 262.551 243.983 269.419 234.792 283.012C234.615 283.276 234.332 283.421 234.049 283.421ZM214.122 247.25C221.531 260.337 225.755 267.543 234.073 280.882C242.485 268.457 247.228 261.612 256.383 249.018C238.568 248.357 229.318 247.972 214.122 247.25Z" fill="black"/>
<path d="M258.094 249.078C258.082 249.078 258.07 249.078 258.058 249.078C238.485 248.345 229.153 247.972 212.505 247.166C212.222 247.154 211.963 246.997 211.809 246.757C211.656 246.516 211.621 246.215 211.715 245.939C216.859 231.997 219.49 225.141 224.964 212.006C225.082 211.717 225.33 211.512 225.637 211.464C225.932 211.416 226.239 211.524 226.439 211.753C238.78 225.827 245.411 233.188 258.731 247.539C258.979 247.803 259.038 248.2 258.896 248.525C258.766 248.874 258.448 249.078 258.094 249.078ZM213.815 245.434C229.094 246.167 238.32 246.54 255.982 247.202C243.948 234.223 237.376 226.921 226.073 214.039C221.106 225.947 218.499 232.743 213.815 245.434Z" fill="black"/>
<path d="M258.094 249.078C257.858 249.078 257.622 248.982 257.457 248.802C244.125 234.427 237.471 227.066 225.13 212.98C224.941 212.763 224.858 212.463 224.929 212.174C224.988 211.885 225.189 211.657 225.46 211.536C241.624 204.824 250.342 201.492 267.863 195.322C268.169 195.213 268.5 195.286 268.736 195.502C268.972 195.719 269.078 196.043 269.019 196.368C265.149 215.217 262.896 226.488 258.979 248.357C258.92 248.693 258.684 248.958 258.365 249.054C258.271 249.066 258.188 249.078 258.094 249.078ZM227.289 212.727C238.721 225.767 245.316 233.068 257.551 246.264C261.173 226.115 263.379 214.989 266.966 197.547C250.861 203.237 242.225 206.533 227.289 212.727Z" fill="black"/>
<path d="M289.147 241.789C288.958 241.789 288.769 241.729 288.604 241.596C288.309 241.368 288.191 240.959 288.309 240.598L289.265 237.699C299.812 205.57 305.11 189.452 315.492 163.469C315.587 163.241 315.752 163.061 315.976 162.976C316.2 162.88 316.448 162.892 316.66 162.988C338.31 172.587 349.211 177.615 370.165 188.778C370.448 188.934 370.625 189.223 370.637 189.548C370.649 189.873 370.484 190.173 370.212 190.354C364.148 194.143 358.615 197.571 353.388 200.819C332.493 213.798 315.988 224.046 289.619 241.645C289.477 241.741 289.312 241.789 289.147 241.789ZM316.778 165.021C306.643 190.45 301.346 206.545 290.928 238.289L290.787 238.722C315.952 221.965 332.128 211.909 352.468 199.279C357.305 196.272 362.414 193.108 367.959 189.644C348.22 179.155 337.366 174.151 316.778 165.021Z" fill="black"/>
<path d="M369.752 190.486C369.611 190.486 369.469 190.45 369.339 190.378C348.433 179.239 337.555 174.235 315.94 164.648C315.587 164.492 315.374 164.119 315.41 163.734C315.445 163.349 315.728 163.024 316.106 162.94C324.364 161.16 331.514 159.62 338.109 158.213C355.299 154.532 368.867 151.621 388.606 147.098C388.948 147.026 389.29 147.146 389.502 147.423C389.715 147.7 389.75 148.073 389.585 148.385C382.152 163.121 378.318 171.685 370.554 189.933C370.46 190.161 370.271 190.342 370.035 190.426C369.953 190.462 369.858 190.486 369.752 190.486ZM319.197 164.119C338.912 172.876 349.742 177.916 369.327 188.333C376.56 171.348 380.382 162.796 387.166 149.276C368.407 153.57 355.146 156.409 338.487 159.981C332.623 161.232 326.323 162.579 319.197 164.119Z" fill="black"/>
<path d="M258.094 249.078C257.87 249.078 257.645 248.994 257.48 248.826C257.268 248.621 257.162 248.309 257.221 248.008C261.138 226.127 263.391 214.844 267.261 195.983C267.344 195.61 267.639 195.322 268.016 195.274C268.382 195.225 268.759 195.43 268.925 195.767C276.487 211.368 280.534 220.137 287.884 236.063L289.937 240.502C290.055 240.754 290.055 241.031 289.937 241.284C289.819 241.536 289.595 241.705 289.336 241.765L287.707 242.138C276.145 244.82 269.774 246.3 258.306 249.042C258.235 249.078 258.165 249.078 258.094 249.078ZM268.476 198.918C264.996 215.891 262.801 226.994 259.215 246.985C269.88 244.435 276.204 242.968 287.318 240.394L287.873 240.261L286.292 236.833C279.331 221.737 275.331 213.076 268.476 198.918Z" fill="black"/>
<path d="M289.147 241.789C288.805 241.789 288.498 241.584 288.344 241.272L286.292 236.833C278.953 220.919 274.906 212.162 267.344 196.573C267.155 196.176 267.273 195.695 267.615 195.442C286.634 181.453 296.344 175.077 315.846 163.048C316.176 162.844 316.589 162.88 316.884 163.133C317.179 163.385 317.274 163.794 317.132 164.155C306.773 190.077 301.476 206.184 290.94 238.276L289.984 241.175C289.866 241.524 289.56 241.765 289.194 241.789C289.182 241.789 289.159 241.789 289.147 241.789ZM269.267 196.464C276.617 211.645 280.652 220.39 287.896 236.075L289.005 238.481L289.253 237.723C299.458 206.653 304.744 190.546 314.478 166.02C296.721 176.99 287.082 183.365 269.267 196.464Z" fill="black"/>
<path d="M316.306 164.721C316.035 164.721 315.775 164.588 315.598 164.36C315.386 164.083 315.362 163.71 315.516 163.397C323.432 147.76 327.456 140.531 335.632 128.478C335.856 128.153 336.245 128.009 336.623 128.129C358.945 135.094 369.67 138.823 389.148 147.122C389.502 147.279 389.726 147.64 389.691 148.037C389.656 148.434 389.384 148.746 389.007 148.843C369.268 153.377 355.677 156.288 338.487 159.969C331.892 161.377 324.754 162.916 316.483 164.696C316.424 164.72 316.365 164.721 316.306 164.721ZM336.729 130.066C329.143 141.264 325.167 148.373 317.958 162.543C325.45 160.919 332.033 159.512 338.133 158.213C354.521 154.701 367.628 151.898 385.916 147.712C368.242 140.266 357.576 136.573 336.729 130.066Z" fill="black"/>
<path d="M388.806 148.879C388.688 148.879 388.57 148.855 388.464 148.806C369.056 140.531 358.367 136.814 336.104 129.873C335.75 129.765 335.502 129.44 335.478 129.067C335.455 128.694 335.667 128.346 336.009 128.189C353.329 120.515 362.072 117.038 378.035 111.072C378.483 110.904 378.978 111.132 379.155 111.577C383.379 122.091 385.479 129.837 389.668 147.772C389.75 148.097 389.632 148.446 389.384 148.674C389.219 148.806 389.019 148.879 388.806 148.879ZM338.912 128.863C359.11 135.19 369.717 138.907 387.544 146.461C383.757 130.282 381.68 122.728 377.846 113.057C363.11 118.566 354.485 121.994 338.912 128.863Z" fill="black"/>
<path d="M388.806 148.879C388.688 148.879 388.57 148.855 388.464 148.806C388.205 148.698 388.016 148.458 387.945 148.181C383.792 130.342 381.704 122.644 377.527 112.251C377.374 111.878 377.492 111.445 377.81 111.193C378.129 110.94 378.565 110.94 378.884 111.18L409.831 134.877C410.067 135.058 410.196 135.346 410.185 135.647C410.173 135.948 410.008 136.224 409.748 136.369L406.846 138.113C400.687 141.83 396.617 144.272 389.278 148.722C389.125 148.831 388.971 148.879 388.806 148.879ZM380.335 114.561C383.721 123.45 385.786 131.172 389.384 146.569C396.098 142.503 400.062 140.11 405.925 136.573L407.683 135.515L380.335 114.561Z" fill="black"/>
<path d="M435.622 154.869C435.574 154.869 435.539 154.869 435.492 154.857C418.762 152.283 408.71 150.996 388.724 148.867C388.346 148.831 388.039 148.542 387.957 148.157C387.874 147.772 388.039 147.387 388.37 147.183C395.72 142.732 399.79 140.278 405.949 136.561L408.851 134.817C409.146 134.637 409.512 134.649 409.807 134.853L436.141 153.209C436.483 153.45 436.613 153.895 436.459 154.28C436.306 154.64 435.976 154.869 435.622 154.869ZM391.555 147.363C408.344 149.167 418.066 150.406 431.941 152.499L409.253 136.681L406.834 138.137C401.348 141.445 397.525 143.742 391.555 147.363Z" fill="black"/>
<path d="M194.891 290.602C194.631 290.602 194.383 290.481 194.218 290.277C194.006 290.024 193.947 289.676 194.077 289.363C200.719 272.21 204.176 263.477 211.75 245.903C211.88 245.59 212.175 245.386 212.517 245.361C212.859 245.349 213.166 245.518 213.331 245.807C221.46 260.193 225.708 267.446 234.804 282.013C234.969 282.266 234.981 282.591 234.863 282.867C234.745 283.144 234.486 283.336 234.202 283.384C216.859 286.247 208.777 287.679 195.08 290.566C195.009 290.602 194.95 290.602 194.891 290.602ZM212.659 248.272C205.804 264.223 202.359 272.883 196.318 288.485C208.754 285.886 216.788 284.455 232.586 281.845C224.268 268.529 220.033 261.3 212.659 248.272Z" fill="black"/>
<path d="M194.891 290.602C194.608 290.602 194.324 290.457 194.159 290.217C187.458 280.353 184.249 275.181 178.574 265.053C178.338 264.632 178.468 264.102 178.857 263.85C190.219 256.332 197.144 252.663 212.175 245.458C212.505 245.301 212.907 245.362 213.166 245.626C213.426 245.891 213.508 246.288 213.355 246.637C205.792 264.174 202.335 272.907 195.705 290.036C195.587 290.349 195.304 290.566 194.985 290.602C194.962 290.602 194.926 290.602 194.891 290.602ZM180.521 264.896C185.712 274.11 188.732 279.006 194.667 287.799C200.636 272.378 204.082 263.717 210.783 248.116C197.593 254.479 190.856 258.112 180.521 264.896Z" fill="black"/>
<path d="M179.341 265.51C179.105 265.51 178.869 265.413 178.704 265.233C178.409 264.92 178.373 264.439 178.621 264.09C193.274 243.16 202.855 232.394 225.189 211.717C225.495 211.428 225.955 211.404 226.298 211.645C226.64 211.885 226.758 212.342 226.604 212.727C221.142 225.839 218.511 232.683 213.379 246.588C213.296 246.805 213.131 246.985 212.93 247.082C197.982 254.251 191.104 257.895 179.824 265.353C179.671 265.462 179.506 265.51 179.341 265.51ZM223.395 215.819C204.589 233.381 195.233 243.846 182.75 261.312C191.906 255.454 198.82 251.869 211.845 245.614C216.399 233.297 218.983 226.512 223.395 215.819Z" fill="black"/>
<path d="M255.203 359.611C254.955 359.611 254.708 359.503 254.531 359.298C239.901 341.832 232.327 331.367 219.289 310.618C219.124 310.353 219.101 310.004 219.242 309.715C224.599 299.046 227.442 293.404 233.259 282.097C233.436 281.761 233.79 281.58 234.143 281.616C234.509 281.664 234.804 281.929 234.899 282.29C243.181 316.079 247.723 332.438 256.029 358.42C256.159 358.829 255.994 359.274 255.616 359.49C255.498 359.575 255.345 359.611 255.203 359.611ZM221.047 310.076C232.975 329.046 240.337 339.378 252.973 354.643C245.682 331.62 241.234 315.453 233.754 285.032C228.716 294.824 225.92 300.369 221.047 310.076Z" fill="black"/>
<path d="M220.033 311.027C219.832 311.027 219.643 310.954 219.478 310.834L194.336 290.409C194.065 290.193 193.947 289.832 194.029 289.495C194.112 289.158 194.372 288.894 194.714 288.821C208.435 285.935 216.54 284.491 233.907 281.628C234.238 281.568 234.568 281.712 234.769 281.989C234.969 282.266 234.993 282.639 234.84 282.939C229.023 294.234 226.191 299.864 220.823 310.533C220.705 310.774 220.481 310.942 220.222 311.003C220.151 311.027 220.092 311.027 220.033 311.027ZM196.92 290.205L219.738 308.741C224.528 299.19 227.336 293.633 232.444 283.709C217.06 286.235 209.072 287.667 196.92 290.205Z" fill="black"/>
<path d="M316.306 164.721C316.129 164.721 315.964 164.672 315.823 164.576C306.927 158.61 302.479 155.759 293.217 150.033C292.946 149.865 292.781 149.552 292.792 149.227C292.804 148.903 292.993 148.602 293.276 148.458C310.501 139.484 319.055 135.527 336.021 128.165C336.387 128.009 336.8 128.117 337.059 128.43C337.307 128.742 337.331 129.188 337.107 129.512C328.978 141.469 324.99 148.674 317.109 164.227C316.991 164.456 316.79 164.624 316.542 164.684C316.46 164.721 316.377 164.721 316.306 164.721ZM295.482 149.336C303.6 154.352 308.012 157.203 315.964 162.519C323.019 148.614 326.995 141.421 333.909 131.052C319.244 137.439 310.785 141.397 295.482 149.336Z" fill="black"/>
<path d="M336.363 129.909C336.127 129.909 335.903 129.813 335.738 129.645C335.478 129.38 335.408 128.983 335.561 128.634C339.454 119.889 341.307 116.353 345.023 110.603C345.188 110.338 345.495 110.194 345.79 110.194C359.299 110.615 366.095 110.759 378.365 111.012C378.79 111.024 379.155 111.337 379.226 111.77C379.297 112.203 379.061 112.612 378.66 112.768C362.732 118.71 354.002 122.187 336.729 129.849C336.599 129.885 336.481 129.909 336.363 129.909ZM346.227 112.01C343.065 116.942 341.259 120.31 338.121 127.239C352.468 120.912 360.927 117.496 373.622 112.708C364.231 112.528 357.624 112.359 346.227 112.01Z" fill="black"/>
<path d="M293.677 150.166C293.382 150.166 293.087 150.009 292.922 149.733C292.686 149.336 292.781 148.806 293.158 148.53L345.247 110.363C345.589 110.11 346.073 110.146 346.38 110.447C346.687 110.747 346.746 111.229 346.51 111.589C342.852 117.243 341.024 120.731 337.177 129.38C337.083 129.584 336.918 129.753 336.717 129.837C319.799 137.175 311.257 141.12 294.078 150.07C293.949 150.142 293.807 150.166 293.677 150.166ZM342.557 114.548L303.34 143.285C314.466 137.668 322.559 133.999 335.703 128.309C338.546 121.922 340.304 118.338 342.557 114.548Z" fill="black"/>
<path d="M268.134 197.078C267.934 197.078 267.721 197.006 267.556 196.861C267.249 196.597 267.155 196.14 267.332 195.767C277.561 174.837 282.693 165.105 292.91 148.782C293.17 148.373 293.701 148.241 294.114 148.494C303.399 154.231 307.847 157.094 316.778 163.073C317.038 163.241 317.179 163.53 317.179 163.842C317.179 164.155 317.014 164.432 316.755 164.6C297.299 176.605 287.613 182.956 268.653 196.91C268.5 197.018 268.323 197.078 268.134 197.078ZM293.949 150.49C284.616 165.442 279.543 174.945 270.529 193.301C287.306 181.032 296.934 174.728 314.643 163.782C306.738 158.514 302.314 155.663 293.949 150.49Z" fill="black"/>
<path d="M303.033 393.869C302.88 393.869 302.715 393.821 302.585 393.736C282.552 381.563 272.7 374.502 254.637 359.394C254.377 359.178 254.259 358.817 254.342 358.48C254.425 358.143 254.684 357.879 255.026 357.819C267.721 355.136 277.349 353.163 287.53 351.07C297.429 349.038 307.658 346.945 321.073 344.118C321.391 344.046 321.71 344.166 321.91 344.406C322.123 344.647 322.182 344.984 322.087 345.297C314.666 367.502 310.985 377.558 303.836 393.34C303.729 393.568 303.529 393.748 303.293 393.821C303.21 393.857 303.128 393.869 303.033 393.869ZM257.197 359.214C274.021 373.227 283.802 380.204 302.644 391.68C309.333 376.836 312.979 366.888 319.917 346.211C307.233 348.881 297.394 350.902 287.872 352.851C278.186 354.835 268.995 356.724 257.197 359.214Z" fill="black"/>
<path d="M318.654 408.279C318.454 408.279 318.253 408.207 318.1 408.075C311.846 402.902 308.767 400.063 302.42 393.604C302.148 393.327 302.078 392.918 302.255 392.57C302.42 392.221 302.785 392.028 303.163 392.064L308.26 392.714C331.125 395.637 344.929 397.393 368.596 400.821C369.032 400.881 369.363 401.278 369.351 401.723C369.339 402.181 369.009 402.554 368.572 402.602C356.928 403.961 348.598 404.899 339.395 405.934C333.307 406.619 326.83 407.341 318.772 408.267C318.713 408.279 318.689 408.279 318.654 408.279ZM305.499 394.193C310.537 399.246 313.545 401.988 318.925 406.439C326.818 405.537 333.189 404.827 339.183 404.153C346.462 403.335 353.199 402.578 361.458 401.627C341.802 398.825 328.576 397.141 308.024 394.518L305.499 394.193Z" fill="black"/>
<path d="M347.206 419.646C347.111 419.646 347.005 419.634 346.911 419.598C335.419 415.521 329.532 413.175 318.3 408.207C317.934 408.051 317.722 407.654 317.781 407.245C317.84 406.836 318.159 406.523 318.56 406.487C326.618 405.561 333.095 404.839 339.183 404.153C348.386 403.119 356.715 402.193 368.36 400.821C368.749 400.773 369.127 401.002 369.28 401.375C369.434 401.748 369.316 402.181 369.009 402.433L347.749 419.454C347.595 419.574 347.395 419.646 347.206 419.646ZM322.064 407.894C331.29 411.924 336.835 414.101 347.029 417.722L365.446 402.975C355.382 404.141 347.737 405.007 339.372 405.946C334.145 406.535 328.635 407.148 322.064 407.894Z" fill="black"/>
<path d="M330.995 427.333C330.7 427.333 330.429 427.188 330.252 426.924L317.911 407.87C317.698 407.533 317.722 407.1 317.97 406.788C318.218 406.487 318.642 406.379 318.996 406.535C330.311 411.539 335.903 413.764 347.489 417.878C347.831 417.998 348.067 418.323 348.079 418.684C348.102 419.045 347.89 419.394 347.572 419.55L331.361 427.249C331.255 427.309 331.125 427.333 330.995 427.333ZM321.026 409.41L331.314 425.3L344.858 418.865C335.585 415.545 329.921 413.295 321.026 409.41Z" fill="black"/>
<path d="M274.269 408.64C273.856 408.64 273.502 408.351 273.408 407.942C273.314 407.521 273.514 407.1 273.892 406.92C285.584 401.363 291.211 398.464 302.608 392.173C302.951 391.98 303.375 392.04 303.659 392.329C309.971 398.74 313.014 401.555 319.209 406.679C319.504 406.92 319.61 407.317 319.48 407.678C319.35 408.039 319.02 408.279 318.642 408.279C301.098 408.255 291.966 408.327 274.269 408.64ZM302.88 394.085C293.217 399.414 287.471 402.397 278.387 406.776C292.698 406.535 301.547 406.463 316.165 406.487C311.28 402.373 308.248 399.534 302.88 394.085Z" fill="black"/>
<path d="M330.995 427.333C330.983 427.333 330.971 427.333 330.96 427.333C321.863 426.972 314.183 427.008 306.054 427.068C299.836 427.104 293.418 427.14 286.28 426.984C285.879 426.972 285.536 426.695 285.442 426.298C285.348 425.901 285.513 425.492 285.867 425.288L318.218 406.583C318.619 406.355 319.138 406.475 319.397 406.872L331.738 425.925C331.915 426.202 331.939 426.575 331.774 426.864C331.609 427.164 331.314 427.333 330.995 427.333ZM314.265 425.228C319.079 425.228 323.951 425.276 329.308 425.468L318.371 408.58L289.56 425.24C295.412 425.324 300.803 425.3 306.054 425.264C308.814 425.252 311.528 425.228 314.265 425.228Z" fill="black"/>
<path d="M286.303 426.984C286.02 426.984 285.737 426.84 285.572 426.587L273.538 408.243C273.361 407.967 273.337 407.618 273.491 407.329C273.644 407.04 273.939 406.848 274.257 406.848C291.967 406.535 301.087 406.451 318.666 406.487C319.067 406.487 319.421 406.764 319.515 407.161C319.622 407.558 319.445 407.979 319.091 408.171L286.74 426.876C286.598 426.948 286.457 426.984 286.303 426.984ZM275.909 408.616L286.587 424.879L315.315 408.279C300.379 408.267 291.424 408.339 275.909 408.616Z" fill="black"/>
<path d="M274.269 408.64C274.069 408.64 273.88 408.568 273.715 408.448C266.99 403.011 263.521 399.799 256.879 392.822C256.631 392.558 256.56 392.173 256.702 391.836C256.843 391.499 257.174 391.319 257.527 391.295C275.39 391.523 284.51 391.655 303.057 392.076C303.458 392.089 303.8 392.365 303.895 392.762C303.989 393.159 303.812 393.568 303.458 393.772C292.155 400.015 286.233 403.059 274.647 408.568C274.517 408.616 274.399 408.64 274.269 408.64ZM259.639 393.123C265.208 398.909 268.453 401.88 274.387 406.691C284.711 401.772 290.303 398.933 299.659 393.797C284.026 393.46 275.048 393.315 259.639 393.123Z" fill="black"/>
<path d="M245.717 416.29C245.446 416.29 245.175 416.158 245.01 415.918C244.797 415.617 244.785 415.22 244.974 414.907C249.54 407.461 251.841 402.938 256.713 391.824C256.831 391.547 257.079 391.355 257.362 391.307C257.645 391.247 257.952 391.355 258.153 391.571C264.819 398.56 268.087 401.603 274.824 407.04C275.083 407.257 275.213 407.594 275.142 407.93C275.071 408.267 274.824 408.532 274.505 408.616C266.364 410.805 261.091 412.213 254.873 413.873L245.953 416.254C245.859 416.278 245.788 416.29 245.717 416.29ZM257.787 393.773C253.646 403.155 251.357 407.738 247.629 413.945L254.401 412.141C260.182 410.601 265.137 409.278 272.334 407.341C266.777 402.782 263.403 399.631 257.787 393.773Z" fill="black"/>
<path d="M286.303 426.984C286.256 426.984 286.209 426.984 286.162 426.972C283.519 426.551 281.124 426.19 278.929 425.853C266.459 423.977 259.592 422.942 245.34 416.206C244.998 416.05 244.797 415.689 244.833 415.304C244.868 414.919 245.128 414.606 245.493 414.51L254.413 412.128C260.642 410.468 265.904 409.061 274.045 406.872C274.411 406.776 274.8 406.92 275.001 407.245L287.035 425.589C287.235 425.889 287.235 426.274 287.047 426.575C286.881 426.828 286.598 426.984 286.303 426.984ZM248.348 415.617C260.831 421.306 267.19 422.257 279.189 424.073C280.829 424.326 282.575 424.578 284.451 424.879L273.892 408.784C266.093 410.889 260.937 412.261 254.861 413.885L248.348 415.617Z" fill="black"/>
<path d="M303.033 393.869C303.021 393.869 303.021 393.869 303.01 393.869C284.475 393.448 275.355 393.315 257.492 393.087C257.032 393.087 256.654 392.714 256.619 392.257C255.746 380.649 255.309 373.937 254.33 359.214L254.295 358.769C254.271 358.408 254.46 358.071 254.779 357.903C255.097 357.734 255.475 357.782 255.746 358.011C273.726 373.047 283.531 380.084 303.47 392.197C303.812 392.401 303.977 392.822 303.871 393.219C303.777 393.604 303.423 393.869 303.033 393.869ZM258.33 391.295C274.576 391.499 283.602 391.631 299.706 391.992C282.127 381.215 272.417 374.226 256.206 360.73C257.091 373.985 257.539 380.625 258.33 391.295Z" fill="black"/>
<path d="M257.516 393.099C257.457 393.099 257.386 393.087 257.327 393.075C241.045 389.394 233.282 387.481 219.372 383.428C219.042 383.332 218.794 383.043 218.747 382.694C218.7 382.345 218.841 381.996 219.136 381.804C224.929 377.919 229.566 374.815 234.143 371.748C240.231 367.682 246.225 363.665 254.72 357.951C254.979 357.77 255.321 357.758 255.604 357.891C255.888 358.035 256.076 358.312 256.1 358.636L256.124 359.082C257.091 373.793 257.539 380.505 258.412 392.1C258.436 392.389 258.318 392.666 258.106 392.846C257.929 393.015 257.728 393.099 257.516 393.099ZM221.708 382.225C234.12 385.822 241.812 387.71 256.548 391.042C255.758 380.445 255.309 373.769 254.425 360.308C246.591 365.577 240.892 369.39 235.111 373.251C230.946 376.03 226.758 378.833 221.708 382.225Z" fill="black"/>
<path d="M223.254 403.36C223.089 403.36 222.935 403.311 222.794 403.227C222.581 403.095 222.428 402.878 222.381 402.626L218.735 382.718C218.676 382.405 218.782 382.093 219.006 381.888C219.23 381.672 219.549 381.599 219.844 381.684C233.719 385.737 241.458 387.638 257.704 391.307C258.094 391.391 258.389 391.752 258.401 392.161C258.412 392.57 258.153 392.943 257.763 393.051C243.098 397.345 236.338 399.354 223.513 403.323C223.431 403.347 223.336 403.36 223.254 403.36ZM220.741 383.825L223.95 401.303C235.182 397.826 241.824 395.854 253.941 392.305C240.397 389.226 232.834 387.337 220.741 383.825Z" fill="black"/>
<path d="M245.717 416.29C245.588 416.29 245.47 416.266 245.352 416.206C235.984 411.78 231.335 409.109 222.77 403.215C222.487 403.023 222.333 402.674 222.392 402.337C222.44 401.988 222.687 401.711 223.006 401.603C235.842 397.634 242.591 395.625 257.28 391.331C257.61 391.234 257.964 391.343 258.188 391.607C258.412 391.872 258.471 392.245 258.33 392.57C253.422 403.768 251.097 408.351 246.473 415.869C246.296 416.134 246.012 416.29 245.717 416.29ZM225.295 402.77C232.68 407.786 237.046 410.264 245.375 414.221C249.422 407.569 251.711 403.107 255.923 393.592C243.169 397.333 236.468 399.318 225.295 402.77Z" fill="black"/>
<path d="M219.608 383.464C219.466 383.464 219.313 383.428 219.183 383.356C218.9 383.199 218.723 382.886 218.723 382.55C218.865 369.703 218.9 359.454 218.947 347.582C218.983 337.177 219.03 325.377 219.16 310.112C219.16 309.715 219.419 309.367 219.797 309.258C220.174 309.15 220.575 309.306 220.788 309.643C233.778 330.309 241.317 340.738 255.876 358.131C256.041 358.324 256.112 358.588 256.076 358.841C256.041 359.094 255.899 359.322 255.687 359.466C247.18 365.18 241.187 369.198 235.099 373.263C230.521 376.331 225.885 379.422 220.092 383.319C219.938 383.404 219.773 383.464 219.608 383.464ZM220.894 313.156C220.788 326.953 220.741 337.875 220.705 347.582C220.658 358.925 220.623 368.789 220.505 380.866C225.66 377.401 229.92 374.563 234.132 371.748C240.019 367.814 245.812 363.929 253.87 358.516C240.267 342.229 232.787 331.957 220.894 313.156Z" fill="black"/>
<path d="M219.608 383.464C219.443 383.464 219.278 383.416 219.124 383.32L176.946 355.726C176.733 355.581 176.58 355.353 176.545 355.1C176.509 354.847 176.58 354.583 176.745 354.378C190.856 337.682 199.232 328.877 219.407 309.475C219.667 309.222 220.045 309.162 220.363 309.306C220.682 309.451 220.894 309.776 220.894 310.136C220.764 325.389 220.729 337.189 220.682 347.594C220.634 359.466 220.599 369.715 220.457 382.574C220.457 382.899 220.281 383.199 219.997 383.356C219.891 383.428 219.75 383.464 219.608 383.464ZM178.763 354.763L218.735 380.914C218.853 368.813 218.9 358.937 218.936 347.582C218.971 337.658 219.018 326.472 219.124 312.229C200.389 330.273 192.083 339.042 178.763 354.763Z" fill="black"/>
<path d="M177.429 355.858C177.288 355.858 177.146 355.822 177.005 355.75C176.639 355.545 176.462 355.112 176.58 354.703C181.948 335.553 185.287 322.803 189.912 305.156C191.163 300.381 192.519 295.221 194.029 289.459C194.112 289.17 194.324 288.93 194.608 288.833C194.891 288.737 195.197 288.797 195.433 288.99L220.575 309.415C220.776 309.583 220.894 309.824 220.906 310.088C220.918 310.353 220.811 310.606 220.634 310.786C200.507 330.128 192.154 338.909 178.09 355.545C177.925 355.75 177.677 355.858 177.429 355.858ZM195.398 291.263C194.018 296.496 192.779 301.223 191.623 305.626C187.316 322.045 184.119 334.23 179.376 351.275C191.811 336.696 200.294 327.855 218.688 310.172L195.398 291.263Z" fill="black"/>
<path d="M177.429 355.858C177.028 355.858 176.686 355.581 176.58 355.196L161.124 298.276C161.006 297.819 161.242 297.35 161.679 297.181C171.188 293.729 178.279 292.057 194.726 288.809C195.021 288.749 195.339 288.858 195.54 289.086C195.752 289.315 195.823 289.639 195.752 289.94C194.23 295.702 192.885 300.862 191.634 305.638C187.01 323.296 183.659 336.046 178.291 355.208C178.173 355.593 177.819 355.858 177.429 355.858ZM163.047 298.613L177.441 351.624C182.314 334.158 185.547 321.852 189.912 305.169C191.056 300.778 192.295 296.075 193.664 290.866C178.739 293.825 171.802 295.473 163.047 298.613Z" fill="black"/>
<path d="M161.974 298.938C161.738 298.938 161.502 298.841 161.325 298.649C161.089 298.384 161.018 297.999 161.16 297.675C166.835 284.407 170.421 277.502 178.586 264.126C178.751 263.862 179.058 263.693 179.353 263.705C179.659 263.705 179.954 263.886 180.108 264.162C185.83 274.351 188.874 279.259 195.622 289.194C195.787 289.447 195.823 289.772 195.717 290.048C195.599 290.325 195.363 290.542 195.068 290.59C178.715 293.825 171.684 295.473 162.28 298.89C162.174 298.926 162.068 298.938 161.974 298.938ZM179.305 266.364C172.12 278.188 168.604 284.948 163.59 296.496C171.943 293.585 178.963 291.937 193.381 289.074C187.493 280.365 184.331 275.265 179.305 266.364Z" fill="black"/>
<path d="M225.79 213.281C225.507 213.281 225.236 213.148 225.071 212.896C224.835 212.559 224.858 212.09 225.13 211.777C249.233 184.039 264.488 169.845 293.158 148.542C293.5 148.289 293.972 148.313 294.291 148.614C294.598 148.915 294.657 149.396 294.432 149.757C284.262 166.02 279.142 175.715 268.948 196.585C268.842 196.801 268.665 196.958 268.441 197.03C250.968 203.189 242.261 206.521 226.132 213.209C226.014 213.257 225.896 213.281 225.79 213.281ZM290.421 152.812C265.232 171.781 250.496 185.53 228.964 210.081C242.874 204.355 251.522 201.071 267.509 195.442C276.77 176.509 281.844 166.765 290.421 152.812Z" fill="black"/>
<path d="M293.665 150.166C293.488 150.166 293.312 150.118 293.17 150.009C292.863 149.793 292.722 149.408 292.816 149.035C298.208 127.9 300.921 119.071 306.372 108.462C306.537 108.149 306.856 107.957 307.21 107.981C322.359 108.967 330.134 109.4 345.802 110.182C346.179 110.206 346.498 110.459 346.604 110.832C346.71 111.204 346.58 111.601 346.274 111.818L294.185 149.985C294.031 150.118 293.854 150.166 293.665 150.166ZM307.682 109.821C302.691 119.637 300.013 128.141 295.152 147.074L343.194 111.866C329.343 111.168 321.639 110.735 307.682 109.821Z" fill="black"/>
<path d="M293.677 150.166C293.63 150.166 293.595 150.166 293.547 150.154C278.068 147.904 270.317 146.774 255.722 144.5C255.38 144.452 255.109 144.199 255.003 143.863C254.908 143.526 255.003 143.165 255.262 142.936C275.248 124.593 285.843 117.423 306.809 108.053C307.151 107.897 307.552 107.981 307.812 108.269C308.071 108.546 308.118 108.967 307.953 109.304C302.573 119.757 299.883 128.502 294.538 149.492C294.421 149.901 294.067 150.166 293.677 150.166ZM257.834 143.009C271.013 145.053 278.717 146.184 293.005 148.253C297.877 129.188 300.567 120.286 305.228 110.735C286.445 119.324 276.039 126.421 257.834 143.009Z" fill="black"/>
<path d="M225.79 213.281C225.637 213.281 225.484 213.245 225.342 213.148C224.976 212.92 224.823 212.475 224.964 212.066C236.621 179.841 243.098 165.033 255.085 143.177C255.262 142.852 255.628 142.672 255.994 142.72C270.576 144.993 278.328 146.124 293.807 148.373C294.161 148.422 294.456 148.698 294.538 149.047C294.621 149.408 294.491 149.781 294.196 149.997C265.656 171.216 250.46 185.35 226.451 212.968C226.274 213.172 226.038 213.281 225.79 213.281ZM256.324 144.596C245.139 165.033 238.768 179.396 228.244 208.193C250.106 183.317 265.078 169.508 291.388 149.841C277.525 147.832 269.845 146.701 256.324 144.596Z" fill="black"/>
<path d="M225.79 213.281C225.507 213.281 225.236 213.136 225.071 212.896C217.508 201.914 213.768 196.416 206.453 185.615C206.217 185.266 206.252 184.785 206.536 184.484C223.584 166.176 234.084 157.239 255.368 142.864C255.711 142.636 256.159 142.672 256.454 142.96C256.749 143.249 256.82 143.694 256.619 144.067C244.679 165.827 238.226 180.574 226.604 212.703C226.486 213.016 226.215 213.245 225.885 213.281C225.861 213.269 225.826 213.281 225.79 213.281ZM208.305 185.193C215.042 195.141 218.747 200.59 225.531 210.454C236.244 180.935 242.603 166.212 253.304 146.437C234.356 159.404 224.139 168.245 208.305 185.193Z" fill="black"/>
<path d="M179.341 265.51C179.211 265.51 179.081 265.486 178.951 265.413C178.562 265.221 178.373 264.764 178.491 264.343C188.366 230.518 193.652 213.834 206.37 184.724C206.5 184.424 206.783 184.219 207.102 184.195C207.42 184.159 207.727 184.315 207.916 184.58C215.231 195.382 218.959 200.879 226.522 211.849C226.781 212.222 226.722 212.727 226.392 213.04C204.164 233.609 194.631 244.327 180.072 265.125C179.895 265.377 179.624 265.51 179.341 265.51ZM207.338 186.938C195.776 213.569 190.443 229.904 181.677 259.76C194.572 241.741 204.247 231.119 224.61 212.246C217.661 202.142 213.945 196.681 207.338 186.938Z" fill="black"/>
<path d="M161.974 298.938C161.927 298.938 161.868 298.938 161.82 298.926C161.419 298.853 161.112 298.517 161.089 298.096C160.192 283.998 157.809 247.154 157.632 245.903C157.573 245.53 157.762 245.145 158.08 244.964C158.411 244.784 158.812 244.82 159.083 245.073L179.919 263.934C180.237 264.223 180.308 264.716 180.084 265.089C171.979 278.38 168.416 285.225 162.776 298.408C162.634 298.733 162.316 298.938 161.974 298.938ZM159.567 247.912C160.133 255.61 161.714 280.04 162.623 294.307C167.424 283.336 171.023 276.576 178.196 264.776L159.567 247.912Z" fill="black"/>
<path d="M179.341 265.51C179.128 265.51 178.916 265.437 178.751 265.281L157.915 246.42C157.667 246.203 157.561 245.855 157.644 245.53C163.201 222.435 167.141 211.284 176.804 191.328C176.981 190.955 177.382 190.763 177.783 190.847C178.184 190.931 178.468 191.28 178.479 191.689C179.553 220.305 179.931 235.979 180.226 264.583C180.226 264.944 180.025 265.269 179.706 265.413C179.588 265.486 179.47 265.51 179.341 265.51ZM159.484 245.434L178.432 262.575C178.125 234.391 177.736 219.475 176.839 195.346C168.427 213.064 164.64 224.107 159.484 245.434Z" fill="black"/>
<path d="M179.341 265.51C179.305 265.51 179.258 265.51 179.223 265.498C178.786 265.437 178.468 265.065 178.456 264.62C178.137 233.706 177.713 218.658 176.71 191.773C176.698 191.352 176.969 190.967 177.37 190.871C187.375 188.237 193.546 186.89 207.008 184.219C207.326 184.159 207.668 184.279 207.869 184.544C208.069 184.809 208.117 185.169 207.987 185.47C195.315 214.496 190.042 231.119 180.19 264.872C180.072 265.257 179.73 265.51 179.341 265.51ZM178.503 192.435C179.482 218.561 179.872 233.922 180.155 258.665C188.826 229.147 194.171 212.824 205.674 186.324C193.687 188.706 187.647 190.029 178.503 192.435Z" fill="black"/>
<path d="M255.852 144.512C255.711 144.512 255.581 144.476 255.451 144.416C244.16 138.594 238.544 135.755 227.89 130.378C227.572 130.222 227.383 129.873 227.395 129.512C227.418 129.151 227.643 128.839 227.985 128.718C257.138 118.157 274.446 114.284 306.986 107.993C307.422 107.909 307.859 108.173 308 108.618C308.142 109.063 307.918 109.532 307.505 109.713C286.752 118.987 276.251 126.096 256.442 144.284C256.277 144.44 256.065 144.512 255.852 144.512ZM230.557 129.717C239.877 134.42 245.446 137.247 255.711 142.539C273.137 126.577 283.448 119.156 300.001 111.205C272.806 116.557 256.194 120.527 230.557 129.717Z" fill="black"/>
<path d="M345.766 111.998C345.755 111.998 345.743 111.998 345.719 111.998C330.039 111.204 322.264 110.783 307.104 109.797C306.667 109.773 306.313 109.424 306.278 108.979C306.242 108.534 306.526 108.125 306.938 108.017L331.715 101.702C331.939 101.642 332.187 101.678 332.387 101.81L346.215 110.338C346.557 110.555 346.722 110.976 346.604 111.373C346.498 111.734 346.144 111.998 345.766 111.998ZM312.897 108.354C323.527 109.027 330.818 109.436 342.31 110.014L331.797 103.53L312.897 108.354Z" fill="black"/>
<path d="M177.595 192.639C177.3 192.639 177.016 192.483 176.851 192.218C176.651 191.894 176.674 191.461 176.922 191.16L227.619 128.995C227.902 128.646 228.409 128.562 228.787 128.815C229.165 129.067 229.294 129.572 229.094 129.981C220.422 147.339 215.903 159.247 208.034 185.362C207.94 185.675 207.68 185.915 207.361 185.987C193.935 188.658 187.788 189.993 177.831 192.615C177.748 192.627 177.665 192.639 177.595 192.639ZM224.127 136.08L180.013 190.173C188.425 188.008 194.584 186.685 206.477 184.315C213.213 162.014 217.52 150.07 224.127 136.08Z" fill="black"/>
<path d="M158.505 246.649C158.104 246.649 157.75 246.372 157.644 245.975C156.027 239.54 155.296 236.376 153.951 229.904C153.904 229.676 153.939 229.447 154.057 229.243C160.204 219.043 176.285 192.339 176.792 191.34C177.005 190.895 177.536 190.715 177.972 190.931C178.385 191.136 178.574 191.641 178.409 192.074C178.397 192.098 178.385 192.122 178.385 192.134C168.793 211.945 164.876 223.012 159.355 245.963C159.272 246.372 158.918 246.649 158.505 246.649ZM155.756 229.88C156.794 234.836 157.467 237.843 158.493 242.041C162.127 227.318 165.195 217.503 169.938 206.304C164.239 215.807 157.455 227.078 155.756 229.88Z" fill="black"/>
<path d="M207.173 185.999C207.019 185.999 206.866 185.963 206.724 185.879C206.37 185.663 206.205 185.242 206.323 184.833C214.216 158.598 218.77 146.641 227.489 129.163C227.713 128.718 228.233 128.55 228.669 128.767C239.323 134.143 244.951 136.982 256.241 142.804C256.525 142.948 256.713 143.237 256.725 143.562C256.749 143.887 256.595 144.187 256.336 144.368C235.182 158.646 224.752 167.535 207.81 185.723C207.645 185.903 207.409 185.999 207.173 185.999ZM228.681 130.775C220.682 146.894 216.21 158.478 209.131 181.705C224.375 165.575 234.745 156.854 254.106 143.718C243.971 138.498 238.403 135.683 228.681 130.775Z" fill="black"/>
<path d="M223.254 403.36C223.018 403.36 222.794 403.263 222.628 403.095L176.804 355.593C176.486 355.268 176.462 354.751 176.745 354.39C177.028 354.029 177.536 353.945 177.913 354.198L220.092 381.792C220.292 381.924 220.434 382.141 220.481 382.381L224.127 402.289C224.198 402.674 224.009 403.071 223.667 403.251C223.537 403.335 223.395 403.36 223.254 403.36ZM183.6 360.068L221.85 399.727L218.806 383.115L183.6 360.068Z" fill="black"/>
<path d="M474.391 235.281C474.166 235.281 473.954 235.197 473.789 235.041L456.398 218.417C456.221 218.249 456.127 218.02 456.115 217.779L455.537 183.654C455.525 183.209 455.832 182.836 456.257 182.752C456.681 182.667 457.106 182.92 457.248 183.329L475.216 234.09C475.358 234.487 475.216 234.92 474.874 235.149C474.721 235.233 474.556 235.281 474.391 235.281ZM457.873 217.359L472.302 231.155L457.389 189.043L457.873 217.359Z" fill="black"/>
<path d="M330.995 427.333C330.617 427.333 330.275 427.092 330.157 426.719C330.016 426.286 330.216 425.805 330.617 425.613L346.828 417.914C346.923 417.866 347.017 417.842 347.111 417.83L383.568 413.957C384.028 413.921 384.465 414.234 384.535 414.715C384.606 415.184 384.311 415.641 383.851 415.737L331.196 427.309C331.125 427.333 331.054 427.333 330.995 427.333ZM347.442 419.622L338.51 423.857L367.522 417.481L347.442 419.622Z" fill="black"/>
<path d="M161.974 298.938C161.573 298.938 161.219 298.661 161.124 298.264L152.169 263.561C152.122 263.393 152.134 263.224 152.181 263.056L157.667 245.47C157.797 245.061 158.198 244.796 158.611 244.844C159.036 244.892 159.355 245.241 159.39 245.674L162.859 297.963C162.894 298.432 162.564 298.841 162.115 298.914C162.068 298.938 162.021 298.938 161.974 298.938ZM153.939 263.357L160.464 288.641L157.939 250.534L153.939 263.357Z" fill="black"/>
<path d="M153.007 264.235C152.96 264.235 152.901 264.235 152.842 264.223C152.405 264.138 152.099 263.741 152.122 263.284L153.927 229.664C153.951 229.219 154.293 228.858 154.73 228.81C155.178 228.774 155.567 229.062 155.673 229.508L159.355 245.542C159.39 245.698 159.39 245.867 159.331 246.023L153.845 263.609C153.739 263.994 153.396 264.235 153.007 264.235ZM155.367 236.051L154.281 256.32L157.597 245.722L155.367 236.051Z" fill="black"/>
<path d="M366.897 502.128C366.755 502.128 366.626 502.104 366.484 502.068C366.071 501.947 365.741 501.659 365.552 501.262L215.337 174.091C215.019 173.405 215.254 172.599 215.88 172.19L478.508 0.251069C478.862 0.0104933 479.31 -0.0496432 479.712 0.0706445C480.125 0.190932 480.455 0.479602 480.644 0.876552L630.859 328.047C631.177 328.733 630.941 329.539 630.316 329.948L367.687 501.887C367.452 502.044 367.168 502.128 366.897 502.128ZM218.558 174.007L367.51 498.423L627.638 328.119L478.685 3.70332L218.558 174.007Z" fill="black"/>
<path d="M1.47074 201.829C0.857228 201.829 0.302712 201.432 0.0903437 200.831C-0.145621 200.169 0.102142 199.436 0.680255 199.051L263.309 27.1113C263.497 26.991 263.71 26.9068 263.922 26.8828L479.122 0.0104693C479.924 -0.085761 480.667 0.491616 480.762 1.3216C480.856 2.15159 480.29 2.89739 479.476 2.99362L264.606 29.8298L7.7002 198.028L216.493 171.95C217.296 171.854 218.039 172.431 218.133 173.261C218.228 174.091 217.661 174.837 216.847 174.933L1.64771 201.817C1.58872 201.829 1.52973 201.829 1.47074 201.829Z" fill="black"/>
<path d="M151.686 529C151.119 529 150.6 528.663 150.352 528.134L0.137537 200.963C-0.204612 200.205 0.11394 199.315 0.84543 198.966C1.58872 198.618 2.46179 198.942 2.80393 199.688L152.571 525.873L366.708 499.133C367.511 499.024 368.254 499.614 368.348 500.444C368.443 501.274 367.876 502.019 367.062 502.116L151.863 528.988C151.804 528.988 151.745 529 151.686 529Z" fill="black"/>
<path d="M414.314 356.147C414.09 356.147 413.878 356.014 413.783 355.798L263.568 28.639L264.642 28.1338L414.68 354.908L629.455 328.083L629.596 329.274L414.397 356.147C414.361 356.147 414.338 356.147 414.314 356.147Z" fill="black"/>
<path d="M414.073 355.111L151.37 526.944L152.007 527.956L414.71 356.123L414.073 355.111Z" fill="black"/>
</svg>
