<svg width="480" height="480" viewBox="0 0 480 480" fill="none" xmlns="http://www.w3.org/2000/svg">
<path d="M164.464 366.695C152.064 366.695 138.97 361.452 128.755 351.247C110.131 332.622 108.047 304.41 124.106 288.352C140.164 272.294 168.376 274.378 187.001 293.002C205.626 311.626 207.709 339.838 191.651 355.896C184.401 363.138 174.669 366.695 164.464 366.695ZM151.302 279.654C141.638 279.654 132.448 283 125.613 289.843C110.376 305.08 112.468 331.945 130.263 349.739C148.058 367.534 174.932 369.617 190.16 354.389C205.397 339.152 203.305 312.287 185.511 294.493C175.703 284.694 163.151 279.654 151.302 279.654Z" fill="black"/>
<path d="M175.838 403.664C173.653 403.664 171.442 403.58 169.206 403.41C146.203 401.666 123.894 391.079 106.404 373.589C88.9143 356.1 78.3188 333.8 76.5825 310.788C74.8378 287.734 82.1809 266.73 97.2654 251.646C112.35 236.561 133.355 229.218 156.409 230.963C179.412 232.708 201.721 243.295 219.211 260.784C255.351 296.923 259.451 351.628 228.35 382.728C214.731 396.355 196.267 403.664 175.838 403.664ZM149.786 232.411C129.797 232.411 111.765 239.551 98.468 252.848C83.7393 267.577 76.574 288.107 78.2764 310.661C79.9873 333.266 90.405 355.185 107.607 372.387C124.809 389.588 146.737 400.006 169.334 401.717C191.888 403.419 212.419 396.254 227.147 381.525C257.587 351.086 253.488 297.457 218.009 261.978C200.807 244.777 178.879 234.359 156.282 232.648C154.097 232.496 151.928 232.411 149.786 232.411Z" fill="black"/>
<path d="M189.61 434.671C154.69 434.671 117.753 419.884 88.9312 391.062C63.5308 365.662 48.1499 333.283 45.626 299.888C43.0935 266.45 53.7399 236.002 75.6 214.134C120.709 169.034 200.078 175.005 252.531 227.465C304.983 279.917 310.963 359.293 265.862 404.393C245.543 424.72 218.254 434.671 189.61 434.671ZM89.8375 390.164C141.799 442.124 220.363 448.104 264.973 403.495C309.582 358.886 303.603 280.323 251.642 228.363C199.68 176.403 121.116 170.423 76.5063 215.032C54.9087 236.629 44.3979 266.73 46.8964 299.786C49.4034 332.885 64.6488 364.984 89.8375 390.164Z" fill="black"/>
<path d="M205.101 458.013C160.788 458.013 113.908 439.236 77.3278 402.665C10.7649 336.103 3.15918 235.401 60.3801 178.19C117.593 120.97 218.297 128.575 284.859 195.146C351.422 261.716 359.028 362.41 301.816 419.621C276.034 445.394 241.436 458.013 205.101 458.013ZM157.095 140.636C120.98 140.636 86.5936 153.171 60.9814 178.791C4.09084 235.672 11.6966 335.841 77.9292 402.072C144.162 468.304 244.324 475.909 301.214 419.028C358.096 362.139 350.499 261.978 284.258 195.747C247.847 159.328 201.188 140.636 157.095 140.636Z" fill="black"/>
<path d="M222.87 471.818C218.153 471.818 213.393 471.641 208.59 471.276C158.958 467.516 110.842 444.665 73.093 406.917C35.3438 369.168 12.4843 321.053 8.7322 271.422C4.97168 221.774 20.776 176.564 53.2317 144.108C85.6874 111.653 130.898 95.8492 180.547 99.6097C230.179 103.37 278.295 126.221 316.045 163.969C353.794 201.718 376.653 249.833 380.406 299.464C384.166 349.112 368.362 394.323 335.906 426.778C306.593 456.091 266.861 471.818 222.87 471.818ZM166.428 99.7876C124.063 99.7876 83.7224 114.499 53.6721 144.549C-13.0602 211.28 -4.15013 328.777 73.5419 406.459C116.246 449.163 170.985 471.082 222.701 471.09C265.066 471.09 305.407 456.379 335.457 426.329C402.189 359.598 393.279 242.1 315.587 164.418C272.883 121.715 218.144 99.7876 166.428 99.7876Z" fill="black"/>
<path d="M239.903 480C207.515 480 176.101 473.656 146.525 461.147C117.957 449.061 92.3022 431.766 70.2726 409.737C48.2431 387.708 30.9396 362.054 18.8619 333.486C6.34376 303.902 0 272.489 0 240.102C0 217.082 3.25234 194.316 9.67233 172.439C18.3283 150.13 31.1768 130.371 47.8704 113.678C66.3427 95.2056 88.4824 81.4934 113.654 72.9223C137.97 64.6476 164.082 61.497 191.278 63.555C218.466 65.6131 245.357 72.7783 271.206 84.8474C297.97 97.3399 322.439 114.575 343.927 136.071C365.423 157.566 382.65 182.026 395.151 208.79C407.22 234.639 414.386 261.529 416.444 288.717C418.502 315.904 415.351 342.024 407.076 366.339C398.514 391.519 384.801 413.65 366.32 432.122C349.627 448.815 329.867 461.664 307.575 470.311L307.558 470.319C285.689 476.739 262.923 480 239.903 480ZM175.389 63.4789C127.587 63.4789 82.0793 80.0706 48.1753 113.982C31.524 130.633 18.7094 150.35 10.0789 172.583C3.67582 194.409 0.423482 217.132 0.423482 240.11C0.423482 372.158 107.852 479.585 239.903 479.585C262.881 479.585 285.605 476.333 307.44 469.93C329.672 461.299 349.381 448.485 366.033 431.842C402.494 395.381 420.255 344.564 416.029 288.767C411.802 232.953 386.097 178.842 343.639 136.384C295.472 88.2098 233.72 63.4789 175.389 63.4789Z" fill="black"/>
<path d="M239.903 480C207.515 480 176.101 473.656 146.525 461.147C117.957 449.061 92.3022 431.766 70.2726 409.737C48.2431 387.708 30.9396 362.054 18.8619 333.486C6.34376 303.902 0 272.489 0 240.102C0 190.098 15.2284 142.186 44.0421 101.532C46.9811 98.136 50.0725 94.8075 53.2402 91.6399C73.1777 71.7027 96.9435 56.7964 123.885 47.336C149.904 38.1974 177.778 34.4878 206.727 36.3172C235.676 38.1466 264.236 45.4219 291.627 57.9398C319.983 70.8981 345.824 88.9381 368.446 111.552C418.858 161.962 446.392 228.964 443.996 295.391C441.98 351.23 418.714 401.141 378.483 435.942L378.466 435.959C337.82 464.772 289.899 480 239.903 480ZM192.388 36.2833C138.58 36.2833 89.7189 55.7631 53.5451 91.9363C50.3859 95.0954 47.303 98.4155 44.3809 101.786C15.6265 142.355 0.423482 190.191 0.423482 240.102C0.423482 372.149 107.852 479.577 239.903 479.577C289.814 479.577 337.642 464.374 378.22 435.62C418.349 400.895 441.565 351.094 443.572 295.382C445.969 229.074 418.477 162.182 368.15 111.857C323.473 67.18 266.133 40.5011 206.71 36.7407C201.908 36.4357 197.122 36.2833 192.388 36.2833Z" fill="black"/>
<path d="M239.903 480C207.515 480 176.101 473.656 146.525 461.147C117.957 449.061 92.3022 431.766 70.2726 409.737C48.2431 387.708 30.9396 362.054 18.8619 333.486C6.34376 303.902 0 272.489 0 240.102C0 201.489 9.39283 163.114 27.1537 129.126C44.347 96.2304 69.3748 67.324 99.5352 45.532C122.395 32.5144 147.169 23.4266 173.196 18.4974C198.808 13.6444 224.979 12.9499 250.981 16.4308C277.245 19.9457 302.629 27.619 326.428 39.2646C351.05 51.2997 373.477 67.341 393.076 86.9394C412.675 106.538 428.716 128.957 440.752 153.586C452.389 177.385 460.071 202.777 463.586 229.032C467.058 255.025 466.364 281.196 461.511 306.816C456.581 332.834 447.494 357.616 434.484 380.458C412.683 410.635 383.776 435.662 350.872 452.855C316.892 470.607 278.516 480 239.903 480ZM218.153 14.703C177.431 14.703 136.615 24.9088 99.7724 45.8877C37.5713 90.8353 0.423482 163.444 0.423482 240.102C0.423482 372.149 107.852 479.577 239.903 479.577C316.561 479.577 389.172 442.438 434.128 380.221C487.877 285.82 470.878 165.333 392.771 87.2358C345.155 39.6118 281.768 14.703 218.153 14.703Z" fill="black"/>
<path d="M239.903 480C207.515 480 176.101 473.656 146.525 461.147C117.957 449.061 92.3022 431.766 70.2726 409.737C48.2431 387.708 30.9396 362.054 18.8619 333.486C6.34376 303.902 0 272.489 0 240.102C0 212.101 4.77688 184.677 14.2036 158.583C23.3085 133.369 36.5296 109.976 53.5027 89.0652C70.3234 68.3319 90.3118 50.656 112.909 36.5289C135.938 22.1308 161.016 11.8488 187.45 5.94561C226.317 -0.118551 266.353 2.71872 303.247 14.1441C341.919 26.1199 376.044 46.7008 404.654 75.3192C433.197 103.861 453.753 137.892 465.746 176.453C477.163 213.169 480.068 253.035 474.147 291.74L474.215 291.757L474.173 291.96C462.595 344.471 433.112 392.18 391.153 426.303C370.225 443.327 346.806 456.59 321.55 465.729C295.421 475.198 267.946 480 239.903 480ZM228.477 3.17607C214.951 3.17607 201.281 4.23478 187.535 6.37756C79.1234 30.5495 0.423482 128.846 0.423482 240.102C0.423482 372.149 107.852 479.577 239.903 479.577C351.372 479.577 449.67 400.742 473.724 292.087L473.682 292.079L473.716 291.884C486.157 210.958 460.876 132.141 404.366 75.6326C357.292 28.5676 294.786 3.17607 228.477 3.17607Z" fill="black"/>
<path d="M239.903 480C207.515 480 176.101 473.656 146.525 461.147C117.957 449.061 92.3022 431.766 70.2726 409.737C48.2431 387.708 30.9396 362.054 18.8619 333.486C6.34376 303.902 0 272.489 0 240.102C0 207.714 6.34376 176.301 18.8534 146.725C30.9396 118.158 48.2346 92.5038 70.2641 70.4747C92.2937 48.4455 117.948 31.1423 146.516 19.0648C176.092 6.55539 207.506 0.211737 239.894 0.211737C272.282 0.211737 303.696 6.55539 333.272 19.0648C361.84 31.1508 387.495 48.4455 409.524 70.4747C431.554 92.5038 448.857 118.158 460.935 146.725C473.444 176.301 479.788 207.714 479.788 240.102C479.788 272.489 473.444 303.902 460.935 333.478C448.849 362.045 431.554 387.699 409.524 409.729C387.495 431.758 361.84 449.061 333.272 461.138C303.704 473.656 272.291 480 239.903 480ZM239.903 0.626734C107.852 0.626734 0.423482 108.054 0.423482 240.102C0.423482 372.149 107.852 479.577 239.903 479.577C371.953 479.577 479.382 372.149 479.382 240.102C479.373 108.054 371.944 0.626734 239.903 0.626734Z" fill="black"/>
<path d="M328.546 203.742C327.385 203.742 326.225 203.7 325.039 203.607C312.936 202.692 301.223 197.127 292.042 187.955C273.01 168.924 270.918 140.035 287.392 123.561C303.865 107.088 332.747 109.172 351.787 128.211C370.818 147.242 372.91 176.132 356.436 192.605C349.195 199.855 339.387 203.742 328.546 203.742ZM315.342 116.676C305.957 116.676 297.03 119.92 290.399 126.56C275.577 141.381 277.66 167.577 295.048 184.965C303.51 193.426 314.283 198.55 325.37 199.389C336.338 200.219 346.315 196.746 353.447 189.615C368.268 174.793 366.185 148.597 348.797 131.209C339.201 121.613 326.911 116.676 315.342 116.676Z" fill="black"/>
<path d="M329.943 250.494C305.61 250.494 279.896 240.212 259.849 220.156C242.181 202.489 231.475 179.951 229.714 156.686C227.943 133.318 235.397 112.017 250.701 96.7131C266.006 81.4087 287.307 73.9556 310.675 75.7257C333.933 77.4874 356.479 88.1843 374.146 105.86C410.701 142.414 414.801 197.788 383.285 229.295C369.056 243.523 349.966 250.494 329.943 250.494ZM303.975 79.2914C284.275 79.2914 266.497 86.321 253.403 99.4149C238.895 113.923 231.839 134.157 233.516 156.398C235.21 178.749 245.518 200.431 262.542 217.463C297.606 252.526 350.567 256.634 380.592 226.601C410.617 196.577 406.517 143.617 371.453 108.553C354.429 91.5298 332.747 81.2224 310.387 79.5285C308.227 79.3676 306.084 79.2914 303.975 79.2914Z" fill="black"/>
<path d="M327.936 297.186C292.796 297.186 255.639 282.314 226.656 253.331C173.873 200.549 167.894 120.639 213.325 75.2006C258.764 29.7618 338.667 35.7413 391.458 88.5316C417.003 114.076 432.468 146.641 435.009 180.248C437.559 213.931 426.828 244.624 404.79 266.662C384.302 287.158 356.801 297.186 327.936 297.186ZM290.077 47.5816C261.009 47.5816 234.778 57.9567 215.434 77.3011C171.155 121.58 177.134 199.609 228.765 251.239C253.801 276.275 285.715 291.444 318.603 293.934C351.414 296.415 381.278 285.989 402.698 264.57C424.117 243.151 434.543 213.287 432.062 180.476C429.572 147.581 414.411 115.676 389.366 90.6405C364.33 65.6047 332.417 50.4358 299.529 47.9458C296.353 47.7002 293.194 47.5816 290.077 47.5816Z" fill="black"/>
<path d="M322.863 341.126C318.814 341.126 314.74 340.973 310.616 340.66C268.081 337.441 226.842 317.852 194.497 285.507C127.688 218.699 120.083 117.59 177.541 60.1334C235.007 2.6679 336.109 10.2735 402.918 77.0893C435.263 109.434 454.845 150.672 458.072 193.206C461.299 235.808 447.731 274.606 419.874 302.462C394.711 327.625 360.612 341.126 322.863 341.126ZM274.704 23.6638C238.751 23.6638 204.533 36.1393 179.04 61.6325C122.403 118.268 130.009 218.03 195.996 284.016C232.28 320.299 278.787 338.932 322.719 338.932C358.672 338.932 392.89 326.457 418.383 300.963C445.8 273.548 459.148 235.333 455.972 193.367C452.787 151.333 433.417 110.569 401.436 78.5884C365.135 42.2966 318.628 23.6638 274.704 23.6638Z" fill="black"/>
<path d="M313.546 381.457C308.82 381.457 304.052 381.28 299.241 380.915C249.533 377.155 201.34 354.262 163.54 316.463C125.74 278.663 102.847 230.472 99.0863 180.764C95.3173 131.023 111.156 85.7197 143.679 53.1969C176.202 20.674 221.507 4.84458 271.249 8.60504C320.957 12.3655 369.149 35.2585 406.949 73.0579C444.749 110.857 467.643 159.049 471.403 208.756C475.172 258.497 459.334 303.801 426.811 336.324C397.429 365.696 357.631 381.457 313.546 381.457ZM257.113 9.42655C214.824 9.42655 174.568 24.1042 144.577 54.0947C77.9631 120.707 86.8816 237.993 164.447 315.556C202.035 353.144 249.939 375.901 299.343 379.645C348.712 383.38 393.66 367.678 425.913 335.426C458.165 303.174 473.868 258.226 470.133 208.858C466.389 159.455 443.631 111.552 406.043 73.9641C363.398 31.3202 308.744 9.42655 257.113 9.42655Z" fill="black"/>
<path d="M304.611 417.47C299.292 417.47 293.922 417.267 288.501 416.86C232.542 412.625 178.277 386.853 135.718 344.285C93.1576 301.726 67.3845 247.462 63.1412 191.504C58.8979 135.52 76.7265 84.5256 113.324 47.9289C130.034 31.2186 149.828 18.3534 172.137 9.6891L172.171 9.68062C194.065 3.25228 216.857 0 239.894 0C304.026 0 364.33 24.9766 409.677 70.3222C455.032 115.676 480 175.971 480 240.102C480 263.139 476.739 285.922 470.319 307.824C461.646 330.175 448.781 349.959 432.07 366.678C399.022 399.726 354.226 417.47 304.611 417.47ZM172.433 10.4852C150.234 19.0987 130.551 31.9046 113.925 48.5217C38.7232 123.722 48.7682 256.134 136.319 343.684C178.735 386.099 232.814 411.787 288.569 416.013C344.308 420.231 395.058 402.496 431.477 366.077C448.103 349.451 460.909 329.76 469.523 307.553C475.918 285.769 479.161 263.062 479.161 240.102C479.161 108.172 371.826 0.838471 239.894 0.838471C216.941 0.838471 194.243 4.0823 172.433 10.4852Z" fill="black"/>
<path d="M287.35 444.335C282.615 444.335 277.855 444.182 273.061 443.878C244.112 442.048 215.552 434.773 188.162 422.255C159.805 409.297 133.964 391.257 111.342 368.643C60.9391 318.241 33.4043 251.231 35.8096 184.813C37.8254 128.973 61.0915 79.0627 101.322 44.2616L101.339 44.2446C141.994 15.4314 189.906 0.20326 239.911 0.20326C272.299 0.20326 303.713 6.54692 333.289 19.0564C361.857 31.1423 387.512 48.437 409.541 70.4662C431.571 92.4953 448.874 118.149 460.952 146.717C473.461 176.292 479.805 207.706 479.805 240.093C479.805 290.097 464.577 338.009 435.763 378.663C432.824 382.059 429.733 385.387 426.565 388.555C406.628 408.492 382.862 423.398 355.92 432.859C334.195 440.498 311.192 444.335 287.35 444.335ZM101.585 44.5834C61.4557 79.3083 38.2404 129.109 36.2247 184.821C33.8278 251.129 61.3202 318.021 111.647 368.347C203.873 460.571 345.002 469.506 426.252 388.258C429.411 385.099 432.494 381.779 435.416 378.408C464.17 337.848 479.373 290.012 479.373 240.102C479.373 108.054 371.944 0.626734 239.894 0.626734C189.991 0.626734 142.163 15.8295 101.585 44.5834Z" fill="black"/>
<path d="M261.373 465.949C250.524 465.949 239.657 465.229 228.816 463.772C202.551 460.258 177.168 452.576 153.368 440.939C128.747 428.904 106.319 412.862 86.7207 393.264C67.1219 373.665 51.0804 351.247 39.045 326.618C27.4078 302.818 19.7258 277.427 16.2109 251.171C12.7383 225.178 13.4329 199.008 18.286 173.387C23.2153 147.369 32.3032 122.587 45.3126 99.7452C67.1134 69.5684 96.0203 44.541 128.925 27.348C162.914 9.57898 201.29 0.194782 239.903 0.194782C272.291 0.194782 303.704 6.53844 333.28 19.0479C361.849 31.1338 387.503 48.4286 409.533 70.4577C431.562 92.4869 448.866 118.141 460.943 146.709C473.453 176.284 479.797 207.697 479.797 240.085C479.797 278.697 470.404 317.072 452.643 351.06C435.45 383.956 410.413 412.862 380.262 434.654C357.402 447.672 332.628 456.76 306.601 461.689C291.669 464.535 276.542 465.949 261.373 465.949ZM239.903 0.626734C163.244 0.626734 90.6336 37.7655 45.6768 99.9823C-8.07157 194.383 8.927 314.87 87.034 392.967C134.65 440.583 198.046 465.492 261.653 465.492C302.375 465.492 343.181 455.295 380.033 434.307C442.234 389.36 479.373 316.751 479.373 240.093C479.373 108.054 371.944 0.626734 239.903 0.626734Z" fill="black"/>
<path d="M252.15 477.358C226.41 477.358 200.798 473.563 176.55 466.051C137.877 454.075 103.753 433.494 75.1427 404.876C46.6 376.333 26.0441 342.303 14.0511 303.741C2.63406 267.018 -0.271028 227.16 5.64925 188.455L5.58149 188.438L5.62384 188.234C17.2018 135.724 46.6847 88.015 88.6433 53.8914C109.572 36.8677 132.99 23.6045 158.247 14.4659C184.376 5.00548 211.851 0.211737 239.903 0.211737C272.291 0.211737 303.704 6.55539 333.28 19.0648C361.849 31.1508 387.503 48.4455 409.533 70.4747C431.562 92.5038 448.866 118.158 460.943 146.725C473.453 176.301 479.797 207.714 479.797 240.102C479.797 268.102 475.02 295.526 465.593 321.62C456.488 346.834 443.267 370.227 426.294 391.138C409.473 411.871 389.485 429.547 366.888 443.674C343.859 458.072 318.78 468.354 292.347 474.258C279.032 476.324 265.574 477.358 252.15 477.358ZM6.0812 188.116L6.12355 188.124L6.08967 188.319C-6.35223 269.245 18.9297 348.062 75.4391 404.571C132.109 461.24 211.14 486.479 292.262 473.826C400.673 449.645 479.373 351.348 479.373 240.093C479.373 108.045 371.944 0.618256 239.894 0.618256C128.434 0.626726 30.1265 79.4608 6.0812 188.116Z" fill="black"/>
<path d="M239.903 480C207.515 480 176.101 473.656 146.525 461.147C117.957 449.061 92.3022 431.766 70.2726 409.737C48.2431 387.708 30.9396 362.054 18.8619 333.486C6.34376 303.902 0 272.489 0 240.102C0 207.714 6.34376 176.301 18.8534 146.725C30.9396 118.158 48.2346 92.5038 70.2641 70.4747C92.2937 48.4455 117.948 31.1423 146.516 19.0648C176.092 6.55539 207.506 0.211737 239.894 0.211737C272.282 0.211737 303.696 6.55539 333.272 19.0648C361.84 31.1508 387.495 48.4455 409.524 70.4747C431.554 92.5038 448.857 118.158 460.935 146.725C473.444 176.301 479.788 207.714 479.788 240.102C479.788 272.489 473.444 303.902 460.935 333.478C448.849 362.045 431.554 387.699 409.524 409.729C387.495 431.758 361.84 449.061 333.272 461.138C303.704 473.656 272.291 480 239.903 480ZM239.903 0.626734C107.852 0.626734 0.423482 108.054 0.423482 240.102C0.423482 372.149 107.852 479.577 239.903 479.577C371.953 479.577 479.382 372.149 479.382 240.102C479.382 108.054 371.944 0.626734 239.903 0.626734Z" fill="black"/>
<path d="M239.903 480C207.515 480 176.101 473.656 146.525 461.147C117.957 449.061 92.3022 431.766 70.2726 409.737C48.2431 387.708 30.9396 362.054 18.8619 333.486C6.34376 303.902 0 272.489 0 240.102C0 207.714 6.34376 176.301 18.8534 146.725C30.9396 118.158 48.2346 92.5038 70.2641 70.4747C92.2937 48.4455 117.948 31.1423 146.516 19.0648C176.092 6.55539 207.506 0.211737 239.894 0.211737C272.282 0.211737 303.696 6.55539 333.272 19.0648C361.84 31.1508 387.495 48.4455 409.524 70.4747C431.554 92.5038 448.857 118.158 460.935 146.725C473.444 176.301 479.788 207.714 479.788 240.102C479.788 272.489 473.444 303.902 460.935 333.478C448.849 362.045 431.554 387.699 409.524 409.729C387.495 431.758 361.84 449.061 333.272 461.138C303.704 473.656 272.291 480 239.903 480ZM239.903 0.626734C107.852 0.626734 0.423482 108.054 0.423482 240.102C0.423482 372.149 107.852 479.577 239.903 479.577C371.953 479.577 479.382 372.149 479.382 240.102C479.382 108.054 371.944 0.626734 239.903 0.626734Z" fill="black"/>
<path d="M164.481 328.721C167.144 326.059 166.345 320.943 162.697 317.294C159.048 313.646 153.933 312.847 151.27 315.51C148.607 318.172 149.406 323.288 153.055 326.936C156.703 330.585 161.819 331.384 164.481 328.721Z" fill="black"/>
<path d="M328.52 164.684C331.182 162.021 330.383 156.905 326.735 153.257C323.087 149.609 317.971 148.81 315.308 151.473C312.645 154.135 313.445 159.251 317.093 162.899C320.741 166.547 325.857 167.346 328.52 164.684Z" fill="black"/>
<path d="M79.5892 418.41C79.2166 418.071 78.0647 417.038 99.7808 390.393C113.696 373.31 133.778 349.688 157.84 322.086C178.676 298.185 203.856 269.855 234.795 235.486C277.643 187.913 318.459 143.668 349.72 110.9C364.923 94.9684 377.043 82.6199 385.733 74.2012C397.955 62.3693 400.013 61.5732 400.495 62.0137L400.352 62.1746C399.733 61.6241 393.567 65.2574 349.872 111.052C318.603 143.812 277.796 188.057 234.956 235.638C204.008 270.007 178.836 298.329 158.001 322.23C101.831 386.666 78.2171 416.894 79.7332 418.257L79.5892 418.41Z" fill="black"/>
<path d="M102.356 436.535C97.9599 433.46 105.456 415.615 112.519 401.183C122.344 381.127 138.004 353.788 157.823 322.12C176.329 292.545 198.215 259.632 221.1 226.949C257.824 174.505 294.295 126.56 323.803 91.9448C353.345 57.2876 372.393 40.1454 377.441 43.6856L377.323 43.8635C374.875 42.1526 368.667 45.7183 359.367 54.1878C350.22 62.5133 338.311 75.2683 323.964 92.0888C294.464 126.695 257.994 174.632 221.278 227.076C198.393 259.759 176.516 292.663 158.01 322.239C116.94 387.86 95.6646 431.597 102.483 436.365L102.356 436.535Z" fill="black"/>
<path d="M138.597 457.488C130.991 453.939 128.891 439.075 132.541 414.505C136.082 390.664 144.822 358.717 157.823 322.12C169.156 290.216 183.173 256.295 199.494 221.299C226.554 163.266 256.19 110.671 282.945 73.1933C309.735 35.6735 330.452 17.7859 341.276 22.8338L341.183 23.0285C318.984 12.6788 255.512 101.668 199.68 221.393C183.368 256.38 169.35 290.292 158.018 322.196C145.026 358.776 136.285 390.715 132.745 414.539C129.111 439.008 131.169 453.795 138.682 457.293L138.597 457.488Z" fill="black"/>
<path d="M177.829 471.675C165.827 468.456 157.671 452.322 154.232 425.016C150.895 398.507 152.14 362.935 157.815 322.146C162.211 290.537 169.046 257.346 178.108 223.501C194.683 161.649 216.679 105.225 240.047 64.6053C251.413 44.8545 262.491 29.9143 272.968 20.2167C283.835 10.1549 293.583 6.19123 301.951 8.42717L301.9 8.63043C293.609 6.41143 283.928 10.3582 273.121 20.3691C262.661 30.0582 251.599 44.973 240.241 64.707C216.882 105.31 194.886 161.716 178.32 223.552C169.249 257.388 162.422 290.571 158.027 322.171C152.352 362.943 151.115 398.49 154.444 424.982C157.866 452.195 165.971 468.27 177.879 471.463L177.829 471.675Z" fill="black"/>
<path d="M219.084 478.907C202.763 477.476 188.322 461.52 177.337 432.766C166.615 404.698 159.864 366.458 157.815 322.171C156.519 294.061 157.239 264.07 159.949 233.03C165.531 169.237 179.091 109.993 198.139 66.206C207.405 44.9052 217.467 28.4321 228.045 17.227C239.013 5.61528 250.058 0.203243 260.882 1.15183L260.865 1.36356C250.109 0.423449 239.115 5.81007 228.198 17.3709C217.636 28.5591 207.591 45.0154 198.334 66.2907C179.294 110.061 165.742 169.28 160.161 233.047C157.451 264.07 156.731 294.052 158.027 322.154C160.068 366.416 166.818 404.638 177.532 432.689C188.492 461.367 202.865 477.281 219.101 478.696L219.084 478.907Z" fill="black"/>
<path d="M257.587 479.026C248.525 479.026 239.318 475.706 230.179 469.125C220.312 462.028 210.682 451.255 201.544 437.11C192.532 423.153 184.198 406.231 176.787 386.81C169.291 367.169 162.905 345.428 157.806 322.171C152.572 298.296 148.922 274.09 146.652 248.156C143.831 215.913 143.56 184.423 145.839 154.56C148.041 125.713 152.53 99.5758 159.162 76.8945C165.802 54.2047 174.263 36.1055 184.308 23.0963C194.717 9.61289 206.388 2.21901 218.991 1.11798L219.008 1.32972C206.464 2.43075 194.844 9.79072 184.469 23.2233C174.441 36.2071 165.988 54.2894 159.356 76.9453C145.712 123.57 141.274 184.364 146.855 248.131C149.125 274.047 152.767 298.253 158.001 322.12C168.105 368.203 183.622 408.992 201.704 436.983C220.439 465.991 240.868 480.407 260.772 478.662L260.789 478.874C259.738 478.984 258.671 479.026 257.587 479.026Z" fill="black"/>
<path d="M289.899 473.199C281.921 473.199 273.569 471.243 264.939 467.338C252.302 461.613 239.352 451.847 226.453 438.305C213.681 424.897 201.306 408.162 189.686 388.58C177.862 368.66 167.14 346.318 157.806 322.18C150.946 304.444 144.89 285.82 139.8 266.831C131.423 235.57 125.944 204.538 123.504 174.59C121.15 145.667 121.734 118.962 125.215 95.231C128.705 71.491 134.93 51.9265 143.721 37.0625C152.826 21.665 164.311 12.0182 177.837 8.3933L177.896 8.59656C164.421 12.2046 152.987 21.8174 143.908 37.1726C135.133 52.0112 128.916 71.5587 125.427 95.2648C118.253 144.041 123.437 204.953 140.003 266.781C145.093 285.769 151.149 304.385 158.001 322.112C176.482 369.913 200.849 411.126 226.614 438.169C253.149 466.025 279.185 477.518 301.917 471.429L301.977 471.632C298.055 472.674 294.024 473.199 289.899 473.199Z" fill="black"/>
<path d="M317.806 462.4C310.379 462.4 302.51 461.096 294.235 458.479C277.194 453.092 259.171 442.421 240.665 426.744C222.159 411.075 204.101 391.206 186.993 367.686C169.283 343.336 153.36 316.115 139.681 286.785C126.003 257.456 115.382 227.762 108.115 198.542C101.094 170.313 97.4771 143.71 97.3755 119.462C97.2654 95.214 100.679 74.54 107.505 58.0245C114.577 40.9161 125.029 29.0419 138.572 22.7237L138.665 22.9184C125.173 29.2113 114.755 41.0516 107.7 58.1092C100.882 74.5993 97.4856 95.2394 97.5872 119.462C97.8074 169.297 112.824 228.685 139.876 286.701C166.928 344.717 202.772 394.39 240.8 426.591C259.29 442.243 277.288 452.906 294.303 458.284C311.903 463.849 327.673 463.476 341.166 457.183L341.259 457.378C334.06 460.723 326.217 462.4 317.806 462.4Z" fill="black"/>
<path d="M340.412 447.282C321.804 447.282 300.3 441.15 277.067 428.98C236.345 407.645 193.98 369.702 157.781 322.154C128.188 283.279 104.744 240.855 89.9645 199.465C82.85 179.528 77.9292 160.311 75.3459 142.364C72.7373 124.256 72.5594 107.766 74.8039 93.3423C76.5232 82.315 79.6739 72.5412 84.1713 64.2919C88.8127 55.7801 94.9277 48.8351 102.347 43.6433L102.466 43.8211C87.7709 54.1116 78.539 70.7796 75.0156 93.3846C70.5013 122.333 75.744 158.989 90.1678 199.406C104.93 240.779 128.374 283.177 157.95 322.035C194.124 369.558 236.464 407.476 277.161 428.802C318.069 450.23 353.633 452.906 377.306 436.331L377.424 436.509C367.151 443.708 354.632 447.282 340.412 447.282Z" fill="black"/>
<path d="M356.741 428.489C340.226 428.489 321.745 424.965 301.68 417.986C278.575 409.949 254.53 397.736 230.205 381.678C205.025 365.052 180.657 345.022 157.772 322.137C134.888 299.253 114.857 274.886 98.2309 249.706C82.1725 225.39 69.9592 201.337 61.9216 178.232C53.8839 155.119 50.4282 134.114 51.6648 115.803C52.9437 96.8317 59.2113 81.5866 70.298 70.4916L70.4505 70.6441C48.5734 92.5208 45.6175 130.71 62.1248 178.164C78.6406 225.653 112.663 276.732 157.925 321.985C203.187 367.246 254.267 401.268 301.748 417.783C349.212 434.29 387.393 431.334 409.27 409.458L409.422 409.61C398.336 420.697 383.09 426.973 364.11 428.243C361.705 428.412 359.248 428.489 356.741 428.489Z" fill="black"/>
<path d="M62.1587 400.802C61.9639 400.802 61.8961 400.725 61.8369 400.666L61.9978 400.522C63.2428 401.911 89.0837 382.016 157.883 322.044C189.703 294.306 218.076 269.203 244.62 245.302C292.203 202.463 336.448 161.649 369.209 130.388C414.996 86.6853 418.646 80.5279 418.087 79.9096L418.248 79.7657C418.68 80.2484 417.892 82.3065 406.06 94.528C397.641 103.226 385.292 115.338 369.361 130.54C336.6 161.81 292.347 202.624 244.773 245.463C218.22 269.364 189.847 294.467 158.027 322.213C129.975 346.665 106.387 366.771 89.8121 380.356C67.4861 398.651 63.1666 400.802 62.1587 400.802Z" fill="black"/>
<path d="M47.1844 378.917C45.3634 378.917 44.1353 378.485 43.517 377.604L43.6864 377.485C46.0579 380.873 58.2034 377.35 78.81 367.288C98.9508 357.455 126.299 341.803 157.9 322.035C186.688 304.021 218.678 282.712 252.98 258.692C305.424 221.977 353.362 185.507 387.969 156.008C404.798 141.669 417.545 129.753 425.871 120.606C434.332 111.306 437.906 105.098 436.195 102.65L436.364 102.532C439.896 107.579 422.762 126.627 388.104 156.169C353.489 185.668 305.542 222.146 253.098 258.87C218.788 282.89 186.798 304.207 158.01 322.222C100.552 358.175 59.7957 378.917 47.1844 378.917Z" fill="black"/>
<path d="M45.1347 349.265C32.7436 349.265 25.0871 346.631 22.6648 341.448L22.8596 341.354C26.366 348.884 41.1371 350.942 65.555 347.317C89.3547 343.785 121.294 335.036 157.925 322.01C190.042 310.593 223.971 296.576 258.764 280.349C378.491 224.518 467.482 161.039 457.132 138.849L457.327 138.756C462.375 149.588 444.495 170.296 406.966 197.085C369.488 223.84 316.883 253.483 258.858 280.535C224.056 296.763 190.127 310.78 158.001 322.205C121.362 335.231 89.4055 343.988 65.5889 347.52C57.7714 348.689 50.9364 349.265 45.1347 349.265Z" fill="black"/>
<path d="M87.5422 327.702C75.5492 327.702 64.598 327.083 54.8663 325.855C27.6026 322.391 11.4933 314.193 8.2579 302.132L8.46117 302.081C11.6712 314.049 27.7211 322.205 54.8917 325.652C81.4187 329.023 117.05 327.769 157.933 322.035C189.093 317.665 222.21 310.805 256.376 301.649C318.213 285.083 374.621 263.088 415.224 239.729C434.958 228.371 449.873 217.31 459.563 206.85C469.574 196.043 473.521 186.354 471.302 178.071L471.505 178.02C473.749 186.388 469.777 196.137 459.715 207.003C450.018 217.48 435.077 228.558 415.326 239.924C374.714 263.291 318.281 285.295 256.427 301.861C222.252 311.017 189.127 317.877 157.959 322.247C132.059 325.864 108.259 327.702 87.5422 327.702Z" fill="black"/>
<path d="M186.442 322.865C176.838 322.865 167.335 322.654 157.95 322.23C113.493 320.231 75.1596 313.524 47.0997 302.827C18.3537 291.876 2.41385 277.427 0.974009 261.055L1.18575 261.038C2.60865 277.325 18.5146 291.715 47.1674 302.632C75.2104 313.32 113.519 320.028 157.959 322.019C186.688 323.306 216.586 322.62 246.839 319.969C310.607 314.388 369.827 300.836 413.598 281.797C434.874 272.54 451.33 262.495 462.519 251.934C474.08 241.016 479.466 230.023 478.526 219.267L478.738 219.25C479.687 230.074 474.275 241.118 462.663 252.086C451.457 262.664 434.984 272.726 413.683 281.992C369.895 301.04 310.65 314.599 246.856 320.181C226.478 321.968 206.253 322.865 186.442 322.865Z" fill="black"/>
<path d="M284.351 335.671C267.124 335.671 249.516 334.892 231.679 333.334C206.464 331.132 181.657 327.397 157.925 322.239C134.557 317.157 112.731 310.788 93.039 303.301C73.5758 295.899 56.6365 287.573 42.6701 278.553C28.5342 269.423 17.7693 259.776 10.6802 249.892C3.33704 239.661 0.0677572 229.328 0.95707 219.19L1.16881 219.207C-0.584405 239.195 13.814 259.658 42.7886 278.375C71.2043 296.729 111.037 311.821 157.976 322.027C181.691 327.185 206.498 330.911 231.704 333.122C295.472 338.703 356.267 334.257 402.892 320.621C425.557 313.99 443.631 305.545 456.615 295.509C470.048 285.134 477.417 273.514 478.509 260.97L478.721 260.987C477.62 273.59 470.226 285.261 456.742 295.678C443.733 305.723 425.633 314.184 402.943 320.824C380.262 327.464 354.124 331.945 325.277 334.147C311.937 335.155 298.267 335.671 284.351 335.671Z" fill="black"/>
<path d="M339.014 357.895C328.156 357.895 316.892 357.421 305.263 356.481C275.314 354.05 244.281 348.562 213.02 340.186C194.565 335.239 176.025 329.201 157.925 322.222C133.702 312.897 111.3 302.166 91.3366 290.351C71.7125 278.731 54.951 266.366 41.5351 253.594C27.9837 240.694 18.2182 227.745 12.4927 215.1C6.57244 202.014 5.14107 189.539 8.22402 178.02L8.42729 178.071C2.32068 200.862 13.814 226.923 41.6791 253.441C68.7481 279.205 110.055 303.564 158.001 322.027C176.101 328.997 194.624 335.036 213.079 339.982C274.908 356.549 335.821 361.724 384.598 354.55C408.304 351.069 427.852 344.844 442.691 336.069C458.047 326.99 467.66 315.556 471.268 302.081L471.471 302.132C467.846 315.658 458.199 327.143 442.801 336.247C427.937 345.039 408.364 351.264 384.632 354.753C370.42 356.854 355.166 357.895 339.014 357.895Z" fill="black"/>
<path d="M361.569 382.609C361.196 382.609 360.832 382.609 360.459 382.609C336.211 382.499 309.608 378.891 281.378 371.87C252.158 364.603 222.464 353.982 193.133 340.304C163.803 326.626 136.581 310.712 112.231 292.994C88.711 275.885 68.8328 257.828 53.1724 239.322C37.5036 220.817 26.8234 202.785 21.4367 185.753C15.8552 168.102 16.2278 152.281 22.5462 138.739L22.741 138.832C16.448 152.324 16.0838 168.094 21.6399 185.694C27.0182 202.709 37.6814 220.706 53.3333 239.195C85.5349 277.232 135.218 313.075 193.226 340.118C251.235 367.169 310.633 382.186 360.468 382.406C360.832 382.406 361.205 382.406 361.569 382.406C385.318 382.406 405.586 379.001 421.822 372.293C438.88 365.238 450.72 354.821 457.013 341.329L457.208 341.422C450.89 354.965 439.015 365.416 421.907 372.488C405.637 379.205 385.343 382.609 361.569 382.609Z" fill="black"/>
<path d="M365.33 406.705C356.606 406.705 347.348 406.002 337.617 404.605C319.67 402.021 300.452 397.101 280.515 389.986C239.123 375.215 196.699 351.763 157.823 322.171C110.275 285.972 72.3392 243.616 50.9957 202.887C29.5252 161.911 26.8572 126.263 43.4747 102.523L43.6441 102.642C27.069 126.314 29.7454 161.877 51.1736 202.785C72.5001 243.481 110.41 285.82 157.942 321.993C196.801 351.569 239.2 375.004 280.574 389.774C320.991 404.198 357.648 409.441 386.597 404.926C409.194 401.403 425.871 392.171 436.161 377.477L436.331 377.595C431.139 385.015 424.185 391.13 415.682 395.771C407.441 400.268 397.667 403.419 386.631 405.138C379.965 406.18 372.842 406.705 365.33 406.705Z" fill="black"/>
<path d="M79.7756 418.816C79.5638 418.816 79.4622 418.723 79.3775 418.647L79.9449 418.02C79.9026 417.986 79.8603 417.978 79.8518 417.969C79.8603 417.969 79.8687 417.969 79.8772 417.969C84.1544 417.969 148.346 351.806 244.9 244.582C268.801 218.03 293.905 189.666 321.643 157.846C380.058 90.8353 400.47 64.563 400.089 62.3185C400.089 62.327 400.106 62.3693 400.148 62.4032L400.716 61.7765C401.317 62.3185 402.444 63.3264 380.431 90.1747C366.846 106.75 346.739 130.346 322.278 158.396C294.54 190.216 269.436 218.589 245.526 245.141C202.687 292.723 161.872 336.967 130.593 369.736C87.9742 414.404 81.2408 418.816 79.7756 418.816Z" fill="black"/>
<path d="M103.965 437.305C103.27 437.305 102.669 437.144 102.178 436.797L102.661 436.103C107.387 439.414 126.68 421.857 155.596 387.928C185.087 353.33 221.549 305.401 258.265 252.967C282.276 218.674 303.586 186.685 321.601 157.897C361.95 93.41 383.751 48.7504 377.136 44.1176L377.619 43.4231C384.852 48.4879 364.178 91.4536 322.312 158.346C304.289 187.142 282.971 219.14 258.951 253.45C222.218 305.901 185.739 353.855 156.231 388.479C136.802 411.287 112.706 437.305 103.965 437.305Z" fill="black"/>
<path d="M142.519 458.631C141.045 458.631 139.69 458.344 138.462 457.776L138.817 457.005C139.918 457.522 141.147 457.776 142.485 457.776C153.758 457.776 173.043 439.677 196.496 406.824C223.234 369.371 252.853 316.801 279.905 258.794C296.124 224.018 310.133 190.098 321.55 157.99C348.187 83.0772 355.844 30.2107 341.056 23.3165L341.411 22.5458C356.86 29.7449 349.551 81.756 322.346 158.269C310.921 190.403 296.895 224.348 280.667 259.15C253.598 317.199 223.954 369.812 197.182 407.306C173.314 440.761 154.198 458.631 142.519 458.631Z" fill="black"/>
<path d="M182.487 472.589C180.861 472.589 179.285 472.386 177.752 471.971L177.973 471.149C179.446 471.547 180.962 471.742 182.512 471.742C216.535 471.751 268.513 378.341 301.164 256.465C310.311 222.316 317.171 189.208 321.542 158.066C333.357 73.854 325.615 15.3213 301.824 8.94378L302.044 8.12227C314.241 11.3915 322.524 27.6021 326.005 54.9924C329.376 81.5697 328.131 117.243 322.388 158.176C318.01 189.361 311.149 222.502 301.994 256.676C285.41 318.555 263.406 375.004 240.021 415.649C218.695 452.694 198.503 472.589 182.487 472.589Z" fill="black"/>
<path d="M221.498 479.331C220.685 479.331 219.872 479.297 219.059 479.221L219.135 478.374C219.923 478.442 220.71 478.476 221.498 478.476C264.583 478.484 308.202 376.054 319.5 246.979C322.143 216.743 322.837 186.845 321.542 158.134C319.551 113.728 312.852 75.4547 302.171 47.4461C291.296 18.9124 277 3.08292 260.84 1.66852L260.916 0.821568C294.1 3.7266 318.23 65.4607 322.388 158.092C323.676 186.837 322.99 216.768 320.339 247.047C314.757 310.873 301.18 370.151 282.124 413.972C263.719 456.277 242.291 479.331 221.498 479.331Z" fill="black"/>
<path d="M260.84 479.204L260.763 478.357C285.452 476.197 306.542 449.425 320.136 402.962C333.772 356.371 338.201 295.619 332.628 231.895C330.426 206.706 326.691 181.916 321.542 158.21C311.344 111.306 296.26 71.5079 277.931 43.1267C259.281 14.2542 238.92 -0.0846719 219.059 1.65157L218.983 0.804625C259.611 -2.74409 301.155 60.4299 322.371 158.024C327.53 181.764 331.265 206.588 333.475 231.81C339.057 295.636 334.61 356.506 320.949 403.19C307.253 450.018 285.91 477.01 260.84 479.204Z" fill="black"/>
<path d="M302.053 471.929L301.833 471.107C356.75 456.396 373.647 340.745 339.506 213.313C334.568 194.875 328.529 176.36 321.558 158.269C303.103 110.366 278.77 69.0857 253.039 42.0511C226.605 14.2796 200.654 2.81188 177.981 8.89297L177.761 8.07146C224.115 -4.34482 283.572 57.2877 322.346 157.965C329.325 176.081 335.372 194.629 340.319 213.092C356.902 274.987 362.086 335.976 354.903 384.82C347.713 433.79 328.944 464.729 302.053 471.929Z" fill="black"/>
<path d="M341.386 457.657L341.03 456.887C367.616 444.487 382.142 410.305 381.922 360.631C381.701 310.847 366.693 251.502 339.658 193.528C283.902 73.9641 193.794 -2.44765 138.792 23.198L138.436 22.4272C165.344 9.88391 201.179 20.7757 239.361 53.0953C277.449 85.3471 313.343 135.088 340.429 193.164C367.515 251.239 382.548 310.712 382.768 360.623C382.98 410.652 368.285 445.114 341.386 457.657Z" fill="black"/>
<path d="M377.619 436.763L377.136 436.069C391.755 425.829 400.944 409.229 404.459 386.717C408.965 357.828 403.731 321.214 389.324 280.857C374.57 239.517 351.143 197.144 321.592 158.312C285.444 110.823 243.146 72.9393 202.484 51.6385C161.685 30.2615 126.24 27.5851 102.669 44.0837L102.186 43.3892C126.028 26.6958 161.787 29.3553 202.882 50.8847C243.646 72.2448 286.045 110.214 322.27 157.795C351.88 196.696 375.341 239.145 390.129 280.569C404.586 321.062 409.829 357.811 405.306 386.844C401.741 409.602 392.432 426.388 377.619 436.763Z" fill="black"/>
<path d="M409.651 409.839L409.05 409.237C430.834 387.454 433.764 349.383 417.299 302.047C400.8 254.601 366.803 203.573 321.575 158.346C228.291 65.0542 115.738 25.815 70.6792 70.8727L70.0778 70.2714C92.1074 48.2422 130.483 45.244 178.15 61.8188C225.707 78.3597 276.864 112.424 322.177 157.744C367.489 203.056 401.563 254.203 418.104 301.768C434.679 349.434 431.681 387.81 409.651 409.839Z" fill="black"/>
<path d="M61.6082 400.878C61.0068 400.209 59.4061 398.43 110.512 349.663C143.281 318.394 187.526 277.579 235.109 234.732C269.487 203.776 297.818 178.605 321.711 157.77C349.322 133.699 372.944 113.627 390.027 99.7029C416.91 77.8008 417.934 78.9357 418.485 79.5455L417.858 80.113C417.892 80.1553 417.934 80.1638 417.943 80.1722C415.495 79.7488 384.954 103.768 322.27 158.413C298.377 179.24 270.055 204.411 235.676 235.367C128.239 332.106 62.0232 396.355 62.2857 400.412C62.2857 400.404 62.2773 400.361 62.2349 400.319L61.6082 400.878Z" fill="black"/>
<path d="M43.2545 377.79C38.5877 371.125 66.9525 344.717 91.5738 323.729C126.198 294.222 174.144 257.744 226.605 221.011C259.298 198.118 292.211 176.242 321.796 157.727C388.68 115.871 431.613 95.1717 436.644 102.345L435.949 102.828C431.359 96.2643 386.724 118.099 322.244 158.439C292.677 176.945 259.772 198.813 227.097 221.697C174.661 258.413 126.731 294.874 92.1328 324.365C58.2118 353.279 40.6543 372.573 43.9574 377.299L43.2545 377.79Z" fill="black"/>
<path d="M22.3768 341.583C17.2527 330.598 35.1744 309.746 72.8389 282.864C110.334 256.1 162.956 226.449 220.998 199.38C256.003 183.06 289.933 169.034 321.846 157.693C398.387 130.506 450.407 123.197 457.606 138.637L456.836 138.993C449.95 124.222 397.065 131.87 322.126 158.49C290.238 169.813 256.334 183.83 221.354 200.143C163.354 227.186 110.783 256.812 73.3302 283.55C36.5804 309.789 18.286 330.81 23.1475 341.227L22.3768 341.583Z" fill="black"/>
<path d="M7.95299 302.208C3.48102 285.532 23.4863 263.418 64.2761 239.949C104.913 216.565 161.372 194.553 223.251 177.978C257.113 168.907 290.314 162.072 321.94 157.677C362.755 151.993 398.353 150.757 424.897 154.094C452.347 157.55 468.566 165.782 471.818 177.919L470.997 178.139C464.661 154.509 406.196 146.802 322.05 158.515C290.458 162.911 257.291 169.737 223.463 178.799C161.66 195.357 105.269 217.336 64.6911 240.686C24.2655 263.952 4.40421 285.718 8.76608 301.988L7.95299 302.208Z" fill="black"/>
<path d="M0.660632 261.081C-1.2281 239.534 21.9448 217.141 65.9023 198.017C109.724 178.96 169.003 165.384 232.83 159.802C263.88 157.084 293.88 156.364 322.016 157.668C366.337 159.718 404.612 166.468 432.714 177.207C461.595 188.243 477.62 202.768 479.06 219.224L478.213 219.301C476.807 203.192 460.96 188.912 432.409 178.003C404.392 167.298 366.202 160.565 321.973 158.515C293.88 157.219 263.914 157.939 232.907 160.649C101.475 172.151 -2.32915 217.166 1.5076 261.004L0.660632 261.081Z" fill="black"/>
<path d="M479.043 261.013L478.196 260.937C479.924 241.152 465.568 220.834 436.661 202.167C408.703 184.11 367.947 168.602 321.897 158.507C298.038 153.281 273.849 149.631 247.949 147.369C184.223 141.796 123.462 146.226 76.8789 159.862C30.423 173.455 3.64195 194.544 1.48219 219.233L0.635223 219.157C2.82886 194.095 29.8216 172.744 76.6333 159.049C123.318 145.387 184.189 140.941 248.017 146.522C273.959 148.792 298.182 152.442 322.075 157.677C368.218 167.789 409.075 183.339 437.118 201.455C466.305 220.3 480.796 240.898 479.043 261.013Z" fill="black"/>
<path d="M471.768 302.225L470.946 302.005C477.002 279.392 465.534 253.458 437.77 227.008C410.761 201.278 369.581 176.936 321.821 158.464C304.102 151.612 285.503 145.565 266.523 140.475C204.737 123.917 143.865 118.742 95.131 125.908C46.5153 133.056 15.8298 151.604 8.71526 178.139L7.89371 177.919C15.1014 151.036 46.0325 132.26 95.004 125.061C143.848 117.878 204.838 123.062 266.734 139.645C285.74 144.735 304.374 150.799 322.117 157.66C422.627 196.535 484.159 255.974 471.768 302.225Z" fill="black"/>
<path d="M457.488 341.549L456.717 341.193C482.363 286.193 405.95 196.086 286.384 140.331C166.818 84.5763 48.6666 83.9581 23.0205 138.959L22.2498 138.603C34.7001 111.899 68.7481 97.2213 118.168 97.2213C118.541 97.2213 118.905 97.2213 119.278 97.2213C169.19 97.4415 228.655 112.475 286.74 139.56C344.816 166.646 394.567 202.531 426.811 240.627C459.148 278.807 470.04 314.642 457.488 341.549Z" fill="black"/>
<path d="M436.602 377.782L435.907 377.299C452.414 353.728 449.73 318.284 428.352 277.486C407.051 236.832 369.166 194.527 321.677 158.38C282.844 128.821 240.47 105.403 199.13 90.649C158.763 76.2424 122.158 71.0082 93.2677 75.514C70.7554 79.0204 54.1549 88.2182 43.9151 102.837L43.2206 102.354C53.5959 87.5406 70.3912 78.2327 93.1322 74.684C122.166 70.1613 158.916 75.4039 199.409 89.8613C240.834 104.649 283.284 128.11 322.185 157.719C369.768 193.943 407.737 236.341 429.097 277.105C450.636 318.182 453.295 353.94 436.602 377.782Z" fill="black"/>
</svg>
