<svg width="32" height="32" viewBox="0 0 32 32" fill="none" xmlns="http://www.w3.org/2000/svg">
<path d="M22.3468 19.9344L7.66555 15.3156C7.33742 15.2125 7.15305 14.8594 7.25617 14.5313L9.65305 6.91564C9.75617 6.58751 10.1093 6.40314 10.4374 6.50626L25.1187 11.125C25.4468 11.2281 25.6312 11.5813 25.528 11.9094L23.1312 19.525C23.028 19.8531 22.6749 20.0375 22.3468 19.9344Z" fill="#F9CC12"/>
<path d="M22.534 20.5875C22.409 20.5875 22.2809 20.5688 22.159 20.5281L7.47779 15.9125C7.15904 15.8125 6.89966 15.5938 6.74654 15.2969C6.59341 15 6.56216 14.6625 6.66216 14.3438L9.05904 6.72813C9.15904 6.40938 9.37779 6.15 9.67466 5.99687C9.97154 5.84375 10.309 5.8125 10.6278 5.9125L25.309 10.5313C25.6278 10.6313 25.8872 10.85 26.0403 11.1469C26.1934 11.4438 26.2247 11.7813 26.1247 12.1L23.7278 19.7156C23.6278 20.0344 23.409 20.2938 23.1122 20.4469C22.9309 20.5406 22.734 20.5875 22.534 20.5875ZM7.85591 14.7188L22.5372 19.3375V19.3344L24.9309 11.7188L10.2497 7.10313V7.10625L7.85591 14.7188Z" fill="#444D68"/>
<path d="M26.5254 25.0906H7.13477C6.44727 25.0906 5.88477 24.5281 5.88477 23.8406V11.8875C5.88477 11.2 6.44727 10.6375 7.13477 10.6375H26.5254C27.2129 10.6375 27.7754 11.2 27.7754 11.8875V23.8438C27.7754 24.5281 27.2129 25.0906 26.5254 25.0906Z" fill="#186FED"/>
<path d="M26.5254 25.7156H7.13477C6.10039 25.7156 5.25977 24.875 5.25977 23.8406V11.8875C5.25977 10.8531 6.10039 10.0125 7.13477 10.0125H26.5254C27.5598 10.0125 28.4004 10.8531 28.4004 11.8875V23.8438C28.4004 24.875 27.5598 25.7156 26.5254 25.7156ZM7.13477 11.2625C6.79102 11.2625 6.50977 11.5438 6.50977 11.8875V23.8438C6.50977 24.1875 6.79102 24.4688 7.13477 24.4688H26.5254C26.8691 24.4688 27.1504 24.1875 27.1504 23.8438V11.8875C27.1504 11.5438 26.8691 11.2625 26.5254 11.2625H7.13477Z" fill="#444D68"/>
<path d="M27.7748 15.3344H21.1123C19.7029 15.3344 18.5498 16.4875 18.5498 17.8969C18.5498 19.3063 19.7029 20.4594 21.1123 20.4594H27.7748V15.3344Z" fill="#F9CC12"/>
<path d="M28.3998 21.0844H21.1123C19.3561 21.0844 17.9248 19.6531 17.9248 17.8969C17.9248 16.1406 19.3561 14.7094 21.1123 14.7094H28.3998V21.0844ZM21.1123 15.9594C20.0436 15.9594 19.1748 16.8281 19.1748 17.8969C19.1748 18.9656 20.0436 19.8344 21.1123 19.8344H27.1498V15.9594H21.1123Z" fill="#444D68"/>
<path d="M20.0215 17.8656C20.0215 17.9637 20.0408 18.0608 20.0783 18.1514C20.1159 18.2421 20.1709 18.3244 20.2402 18.3937C20.3096 18.4631 20.3919 18.5181 20.4825 18.5556C20.5732 18.5932 20.6703 18.6125 20.7684 18.6125C20.8664 18.6125 20.9636 18.5932 21.0542 18.5556C21.1448 18.5181 21.2271 18.4631 21.2965 18.3937C21.3658 18.3244 21.4208 18.2421 21.4584 18.1514C21.4959 18.0608 21.5152 17.9637 21.5152 17.8656C21.5152 17.7675 21.4959 17.6704 21.4584 17.5798C21.4208 17.4892 21.3658 17.4069 21.2965 17.3375C21.2271 17.2681 21.1448 17.2131 21.0542 17.1756C20.9636 17.1381 20.8664 17.1187 20.7684 17.1187C20.6703 17.1187 20.5732 17.1381 20.4825 17.1756C20.3919 17.2131 20.3096 17.2681 20.2402 17.3375C20.1709 17.4069 20.1159 17.4892 20.0783 17.5798C20.0408 17.6704 20.0215 17.7675 20.0215 17.8656Z" fill="#444D68"/>
</svg>
